<?xml version="1.0" encoding="UTF-8" standalone="no"?>
<!-- Created with Inkscape (http://www.inkscape.org/) -->

<svg
   xmlns:dc="http://purl.org/dc/elements/1.1/"
   xmlns:cc="http://creativecommons.org/ns#"
   xmlns:rdf="http://www.w3.org/1999/02/22-rdf-syntax-ns#"
   xmlns:svg="http://www.w3.org/2000/svg"
   xmlns="http://www.w3.org/2000/svg"
   xmlns:sodipodi="http://sodipodi.sourceforge.net/DTD/sodipodi-0.dtd"
   xmlns:inkscape="http://www.inkscape.org/namespaces/inkscape"
   width="129.52917mm"
   height="259.03751mm"
   viewBox="0 0 458.96164 917.84943"
   id="svg14769"
   version="1.1"
   inkscape:version="0.91 r13725"
   sodipodi:docname="slocal_filter.svg">
  <defs
     id="defs14771" />
  <sodipodi:namedview
     id="base"
     pagecolor="#ffffff"
     bordercolor="#666666"
     borderopacity="1.0"
     inkscape:pageopacity="0.0"
     inkscape:pageshadow="2"
     inkscape:zoom="0.7"
     inkscape:cx="249.50612"
     inkscape:cy="481.72046"
     inkscape:document-units="px"
     inkscape:current-layer="layer1"
     showgrid="false"
     fit-margin-left="1"
     fit-margin-right="1"
     fit-margin-bottom="1"
     fit-margin-top="1"
     inkscape:window-width="1883"
     inkscape:window-height="1176"
     inkscape:window-x="37"
     inkscape:window-y="24"
     inkscape:window-maximized="1" />
  <metadata
     id="metadata14774">
    <rdf:RDF>
      <cc:Work
         rdf:about="">
        <dc:format>image/svg+xml</dc:format>
        <dc:type
           rdf:resource="http://purl.org/dc/dcmitype/StillImage" />
        <dc:title></dc:title>
      </cc:Work>
    </rdf:RDF>
  </metadata>
  <g
     inkscape:label="Calque 1"
     inkscape:groupmode="layer"
     id="layer1"
     transform="translate(-20.831644,-84.286315)">
    <g
       id="g178"
       transform="matrix(0.00246063,0,0,0.00246063,-4.978e-5,-1213.8904)">
      <g
         id="g180">
        <path
           inkscape:connector-curvature="0"
           id="path182"
           style="fill:#ffffff;fill-opacity:1;fill-rule:nonzero;stroke:none"
           d="m 10287,559880.6 0,0 c 0,-16834 13646.635,-30480.6 30480.61,-30480.6 l 121918.78,0 0,0 c 8083.97,0 15836.83,3211.3 21553.05,8927.56 5716.23,5716.24 8927.56,13469.04 8927.56,21553.04 l 0,308410.8 c 0,16834 -13646.62,30480.6 -30480.61,30480.6 l -121918.78,0 C 23933.635,898772 10287,885125.4 10287,868291.4 l 0,-308410.8 z" />
      </g>
      <path
         inkscape:connector-curvature="0"
         id="path184"
         style="fill:none;stroke:#000000;stroke-width:762;stroke-linecap:butt;stroke-linejoin:round;stroke-miterlimit:14.3355875;stroke-dasharray:none;stroke-opacity:1"
         d="m 10287,559880.6 0,0 c 0,-16834 13646.635,-30480.6 30480.61,-30480.6 l 121918.78,0 0,0 c 8083.97,0 15836.83,3211.3 21553.05,8927.56 5716.23,5716.24 8927.56,13469.04 8927.56,21553.04 l 0,308410.8 c 0,16834 -13646.62,30480.6 -30480.61,30480.6 l -121918.78,0 C 23933.635,898772 10287,885125.4 10287,868291.4 l 0,-308410.8 z" />
    </g>
    <g
       id="g1330"
       transform="matrix(0.00246063,0,0,0.00246063,-4.978e-5,-1213.8904)">
      <g
         id="g1332">
        <g
           id="g1334">
          <path
             inkscape:connector-curvature="0"
             id="path1336"
             style="fill:#000000;fill-opacity:0;fill-rule:nonzero;stroke:none"
             d="m 25601,612768.5 0,0 c 0,-13825.06 11207.434,-25032.5 25032.5,-25032.5 l 100127,0 0,0 c 6639.03,0 13006.16,2637.4 17700.66,7331.9 4694.5,4694.5 7331.84,11061.6 7331.84,17700.6 l 0,224363 c 0,13825.06 -11207.42,25032.5 -25032.5,25032.5 l -100127,0 C 36808.434,862164 25601,850956.56 25601,837131.5 l 0,-224363 z" />
        </g>
      </g>
      <path
         inkscape:connector-curvature="0"
         id="path1338"
         style="fill:none;stroke:#000000;stroke-width:762;stroke-linecap:butt;stroke-linejoin:round;stroke-miterlimit:14.3355875;stroke-dasharray:3048, 2286;stroke-dashoffset:0;stroke-opacity:1"
         d="m 25601,612768.5 0,0 c 0,-13825.06 11207.434,-25032.5 25032.5,-25032.5 l 100127,0 0,0 c 6639.03,0 13006.16,2637.4 17700.66,7331.9 4694.5,4694.5 7331.84,11061.6 7331.84,17700.6 l 0,224363 c 0,13825.06 -11207.42,25032.5 -25032.5,25032.5 l -100127,0 C 36808.434,862164 25601,850956.56 25601,837131.5 l 0,-224363 z" />
    </g>
    <g
       id="g1340"
       transform="matrix(0.00246063,0,0,0.00246063,-4.978e-5,-1213.8904)">
      <g
         id="g1342">
        <g
           id="g1344">
          <path
             inkscape:connector-curvature="0"
             id="path1346"
             style="fill:#000000;fill-opacity:0;fill-rule:nonzero;stroke:none"
             d="m 16457,590973.5 113316,0 0,11040 -113316,0 0,-11040 z" />
        </g>
      </g>
    </g>
    <g
       transform="matrix(0.93749812,0,0,0.93749812,-4.978e-5,-1213.8904)"
       id="g1348">
      <g
         transform="translate(43.194225,1551.1116)"
         id="g1350">
        <text
           id="text1352"
           style="font-style:italic;font-variant:normal;font-size:18.66666603px;font-family:Arial;-inkscape-font-specification:Arial-ItalicMT;writing-mode:lr-tb;fill:#000000;fill-opacity:1;fill-rule:nonzero;stroke:none"
           transform="translate(111.8365,26.919998)">
          <tspan
             id="tspan1354"
             sodipodi:role="line"
             y="0"
             x="0 10.882667 21.765333 26.935999 31.079998 41.458664 51.83733 62.216 67.386665 78.269333">&lt;&lt; loop &gt;&gt;</tspan>
        </text>
      </g>
    </g>
    <g
       id="g1358"
       transform="matrix(0.00246063,0,0,0.00246063,-4.978e-5,-1213.8904)">
      <g
         id="g1360">
        <path
           inkscape:connector-curvature="0"
           id="path1362"
           style="fill:#ffffff;fill-opacity:1;fill-rule:nonzero;stroke:none"
           d="m 62506.234,582008.2 11052,0 0,11268 -11052,0 0,-11268 z" />
      </g>
      <path
         inkscape:connector-curvature="0"
         id="path1364"
         style="fill:none;stroke:#000000;stroke-width:762;stroke-linecap:butt;stroke-linejoin:round;stroke-miterlimit:14.3355875;stroke-dasharray:none;stroke-opacity:1"
         d="m 62506.234,582008.2 11052,0 0,11268 -11052,0 0,-11268 z" />
    </g>
    <g
       id="g1366"
       transform="matrix(0.00246063,0,0,0.00246063,-4.978e-5,-1213.8904)">
      <g
         id="g1368">
        <path
           inkscape:connector-curvature="0"
           id="path1370"
           style="fill:#ffffff;fill-opacity:1;fill-rule:nonzero;stroke:none"
           d="m 73548.46,582008.2 11052,0 0,11268 -11052,0 0,-11268 z" />
      </g>
      <path
         inkscape:connector-curvature="0"
         id="path1372"
         style="fill:none;stroke:#000000;stroke-width:762;stroke-linecap:butt;stroke-linejoin:round;stroke-miterlimit:14.3355875;stroke-dasharray:none;stroke-opacity:1"
         d="m 73548.46,582008.2 11052,0 0,11268 -11052,0 0,-11268 z" />
    </g>
    <g
       id="g1374"
       transform="matrix(0.00246063,0,0,0.00246063,-4.978e-5,-1213.8904)">
      <g
         id="g1376">
        <g
           id="g1378">
          <path
             inkscape:connector-curvature="0"
             id="path1380"
             style="fill:#000000;fill-opacity:0;fill-rule:nonzero;stroke:none"
             d="m 24884,606167.5 101628,0 0,11040 -101628,0 0,-11040 z" />
        </g>
      </g>
    </g>
    <g
       transform="matrix(0.93749812,0,0,0.93749812,-4.978e-5,-1213.8904)"
       id="g1382">
      <g
         transform="translate(65.31233,1590.9908)"
         id="g1384">
        <text
           id="text1386"
           style="font-style:italic;font-variant:normal;font-size:18.66666603px;font-family:Arial;-inkscape-font-specification:Arial-ItalicMT;writing-mode:lr-tb;fill:#000000;fill-opacity:1;fill-rule:nonzero;stroke:none"
           transform="translate(54.5456,26.919998)">
          <tspan
             id="tspan1388"
             sodipodi:role="line"
             y="0"
             x="0 5.1706667 15.549333 21.765333 26.935999 37.314667 47.693333 57.026665 67.405334 72.575996 76.719994 87.098663 97.477333 107.856 117.18933 127.56799 132.73866 136.88266 147.26132">for each innovation</tspan>
        </text>
      </g>
    </g>
    <g
       id="g1392"
       transform="matrix(0.00246063,0,0,0.00246063,-4.978e-5,-1213.8904)">
      <g
         id="g1394">
        <g
           id="g1396">
          <path
             inkscape:connector-curvature="0"
             id="path1398"
             style="fill:#000000;fill-opacity:0;fill-rule:nonzero;stroke:none"
             d="m 24884,605591.5 149616,0" />
        </g>
      </g>
      <path
         inkscape:connector-curvature="0"
         id="path1400"
         style="fill:none;stroke:#000000;stroke-width:762;stroke-linecap:butt;stroke-linejoin:round;stroke-miterlimit:14.3355875;stroke-dasharray:3048, 2286;stroke-dashoffset:0;stroke-opacity:1"
         d="m 24884,605591.5 149616,0" />
    </g>
    <g
       id="g1402"
       transform="matrix(0.00246063,0,0,0.00246063,-4.978e-5,-1213.8904)">
      <g
         id="g1404">
        <g
           id="g1406">
          <path
             inkscape:connector-curvature="0"
             id="path1408"
             style="fill:#000000;fill-opacity:0;fill-rule:nonzero;stroke:none"
             d="m 24884,620831.5 150000,0" />
        </g>
      </g>
      <path
         inkscape:connector-curvature="0"
         id="path1410"
         style="fill:none;stroke:#000000;stroke-width:762;stroke-linecap:butt;stroke-linejoin:round;stroke-miterlimit:14.3355875;stroke-dasharray:3048, 2286;stroke-dashoffset:0;stroke-opacity:1"
         d="m 24884,620831.5 150000,0" />
    </g>
    <g
       id="g1412"
       transform="matrix(0.00246063,0,0,0.00246063,-4.978e-5,-1213.8904)">
      <g
         id="g1414">
        <path
           inkscape:connector-curvature="0"
           id="path1416"
           style="fill:#ffffff;fill-opacity:1;fill-rule:nonzero;stroke:none"
           d="m 84600.46,582008.2 11052,0 0,11268 -11052,0 0,-11268 z" />
      </g>
      <path
         inkscape:connector-curvature="0"
         id="path1418"
         style="fill:none;stroke:#000000;stroke-width:762;stroke-linecap:butt;stroke-linejoin:round;stroke-miterlimit:14.3355875;stroke-dasharray:none;stroke-opacity:1"
         d="m 84600.46,582008.2 11052,0 0,11268 -11052,0 0,-11268 z" />
    </g>
    <g
       id="g1420"
       transform="matrix(0.00246063,0,0,0.00246063,-4.978e-5,-1213.8904)">
      <g
         id="g1422">
        <path
           inkscape:connector-curvature="0"
           id="path1424"
           style="fill:#ffffff;fill-opacity:1;fill-rule:nonzero;stroke:none"
           d="m 35852,656152 0,0 c 0,-2380.4 1929.652,-4310 4310,-4310 l 71072,0 c 1143.09,0 2239.34,454.06 3047.63,1262.4 808.28,808.2 1262.37,1904.54 1262.37,3047.6 l 0,17240 c 0,2380.4 -1929.66,4310 -4310,4310 l -71072,0 c -2380.348,0 -4310,-1929.6 -4310,-4310 l 0,-17240 z" />
      </g>
      <path
         inkscape:connector-curvature="0"
         id="path1426"
         style="fill:none;stroke:#000000;stroke-width:762;stroke-linecap:butt;stroke-linejoin:round;stroke-miterlimit:14.3355875;stroke-dasharray:none;stroke-opacity:1"
         d="m 35852,656152 0,0 c 0,-2380.4 1929.652,-4310 4310,-4310 l 71072,0 c 1143.09,0 2239.34,454.06 3047.63,1262.4 808.28,808.2 1262.37,1904.54 1262.37,3047.6 l 0,17240 c 0,2380.4 -1929.66,4310 -4310,4310 l -71072,0 c -2380.348,0 -4310,-1929.6 -4310,-4310 l 0,-17240 z" />
    </g>
    <g
       transform="matrix(0.93749812,0,0,0.93749812,-4.978e-5,-1213.8904)"
       id="g1428">
      <g
         transform="translate(97.41301,1714.1847)"
         id="g1430">
        <text
           id="text1432"
           style="font-variant:normal;font-weight:normal;font-size:18.66666603px;font-family:Arial;-inkscape-font-specification:ArialMT;writing-mode:lr-tb;fill:#000000;fill-opacity:1;fill-rule:nonzero;stroke:none"
           transform="translate(9,26.543736)">
          <tspan
             id="tspan1434"
             sodipodi:role="line"
             y="0"
             x="0 9.333333 19.712 35.261333 45.639999 56.018665 62.234665 72.613327 77.783997 91.26133 95.405327 100.576 110.95467 116.12533 131.67467 141.008 146.17867 150.32266 154.46666 163.79999 168.97066">compare with my list</tspan>
        </text>
        <text
           id="text1436"
           style="font-variant:normal;font-weight:normal;font-size:18.66666603px;font-family:Arial;-inkscape-font-specification:ArialMT;writing-mode:lr-tb;fill:#000000;fill-opacity:1;fill-rule:nonzero;stroke:none"
           transform="translate(9,48.543736)">
          <tspan
             id="tspan1438"
             sodipodi:role="line"
             y="0"
             x="0 10.378666 15.549333 20.719999 24.863998 35.242664 45.62133 55.999996 65.333328 75.711998 80.882668 85.026665 95.405327 105.784">of innovations</tspan>
        </text>
      </g>
    </g>
    <g
       id="g1442"
       transform="matrix(0.00246063,0,0,0.00246063,-4.978e-5,-1213.8904)">
      <g
         id="g1444">
        <g
           id="g1446">
          <path
             inkscape:connector-curvature="0"
             id="path1448"
             style="fill:#000000;fill-opacity:0;fill-rule:nonzero;stroke:none"
             d="m 73037.56,634940.5 0,17676" />
        </g>
      </g>
      <path
         inkscape:connector-curvature="0"
         id="path1450"
         style="fill:none;stroke:#000000;stroke-width:762;stroke-linecap:butt;stroke-linejoin:round;stroke-miterlimit:14.3355875;stroke-dasharray:none;stroke-opacity:1"
         d="m 73037.56,634940.5 0,13104" />
      <path
         inkscape:connector-curvature="0"
         id="path1452"
         style="fill:#000000;fill-opacity:1;fill-rule:evenodd;stroke:#000000;stroke-width:762;stroke-linecap:butt;stroke-linejoin:miter;stroke-miterlimit:11.47371292;stroke-dasharray:none;stroke-opacity:1"
         d="m 71778.945,648044.5 1258.615,3458 1258.62,-3458 -2517.235,0 z" />
    </g>
    <g
       id="g1454"
       transform="matrix(0.00246063,0,0,0.00246063,-4.978e-5,-1213.8904)">
      <g
         id="g1456">
        <path
           inkscape:connector-curvature="0"
           id="path1458"
           style="fill:#000000;fill-opacity:1;fill-rule:nonzero;stroke:none"
           d="m 68254.56,630077.5 0,0 c 0,-2684.1 2175.9,-4860 4860,-4860 l 0,0 c 1288.956,0 2525.11,512.06 3436.54,1423.44 911.43,911.46 1423.46,2147.62 1423.46,3436.56 l 0,0 c 0,2684.1 -2175.896,4860 -4860,4860 l 0,0 c -2684.1,0 -4860,-2175.9 -4860,-4860 z" />
      </g>
    </g>
    <g
       id="g1460"
       transform="matrix(0.00246063,0,0,0.00246063,-4.978e-5,-1213.8904)">
      <g
         id="g1462">
        <g
           id="g1464">
          <path
             inkscape:connector-curvature="0"
             id="path1466"
             style="fill:#000000;fill-opacity:0;fill-rule:nonzero;stroke:none"
             d="m 66516,714946 6996,-6996 6996,6996 -6996,6996 -6996,-6996 z" />
        </g>
      </g>
      <path
         inkscape:connector-curvature="0"
         id="path1468"
         style="fill:none;stroke:#000000;stroke-width:762;stroke-linecap:butt;stroke-linejoin:round;stroke-miterlimit:14.3355875;stroke-dasharray:none;stroke-opacity:1"
         d="m 66516,714946 6996,-6996 6996,6996 -6996,6996 -6996,-6996 z" />
    </g>
    <g
       id="g1470"
       transform="matrix(0.00246063,0,0,0.00246063,-4.978e-5,-1213.8904)">
      <g
         id="g1472">
        <g
           id="g1474">
          <path
             inkscape:connector-curvature="0"
             id="path1476"
             style="fill:#000000;fill-opacity:0;fill-rule:nonzero;stroke:none"
             d="m 81288.06,714561 17676,0" />
        </g>
      </g>
      <path
         inkscape:connector-curvature="0"
         id="path1478"
         style="fill:none;stroke:#000000;stroke-width:762;stroke-linecap:butt;stroke-linejoin:round;stroke-miterlimit:14.3355875;stroke-dasharray:none;stroke-opacity:1"
         d="m 81288.06,714561 13104,0" />
      <path
         inkscape:connector-curvature="0"
         id="path1480"
         style="fill:#000000;fill-opacity:1;fill-rule:evenodd;stroke:#000000;stroke-width:762;stroke-linecap:butt;stroke-linejoin:miter;stroke-miterlimit:11.47371292;stroke-dasharray:none;stroke-opacity:1"
         d="m 94392.06,715819.6 3458.03,-1258.6 -3458.03,-1258.6 0,2517.2 z" />
    </g>
    <g
       id="g1482"
       transform="matrix(0.00246063,0,0,0.00246063,-4.978e-5,-1213.8904)">
      <g
         id="g1484">
        <g
           id="g1486">
          <path
             inkscape:connector-curvature="0"
             id="path1488"
             style="fill:#000000;fill-opacity:0;fill-rule:nonzero;stroke:none"
             d="m 73038,682389 59604,0 0,13992 -59604,0 0,-13992 z" />
        </g>
      </g>
    </g>
    <g
       transform="matrix(0.93749812,0,0,0.93749812,-4.978e-5,-1213.8904)"
       id="g1490">
      <g
         transform="translate(191.70079,1791.0472)"
         id="g1492">
        <text
           id="text1494"
           style="font-variant:normal;font-weight:normal;font-size:18.66666603px;font-family:Arial;-inkscape-font-specification:ArialMT;writing-mode:lr-tb;fill:#000000;fill-opacity:1;fill-rule:nonzero;stroke:none"
           transform="translate(9,26.919998)">
          <tspan
             id="tspan1496"
             sodipodi:role="line"
             y="0"
             x="0 5.1706667 14.504 24.882666 40.431999 50.810665 55.981331 62.19733 72.575996 82.954666 88.125328 93.295998 97.439995 107.81866 112.98933 123.368">[same root id ?]</tspan>
        </text>
      </g>
    </g>
    <g
       id="g1500"
       transform="matrix(0.00246063,0,0,0.00246063,-4.978e-5,-1213.8904)">
      <g
         id="g1502">
        <g
           id="g1504">
          <path
             inkscape:connector-curvature="0"
             id="path1506"
             style="fill:#000000;fill-opacity:0;fill-rule:nonzero;stroke:none"
             d="m 73512.06,721942 636,27516" />
        </g>
      </g>
      <path
         inkscape:connector-curvature="0"
         id="path1508"
         style="fill:none;stroke:#000000;stroke-width:762;stroke-linecap:butt;stroke-linejoin:round;stroke-miterlimit:14.3355875;stroke-dasharray:none;stroke-opacity:1"
         d="m 73512.06,721942 530.354,22945.25" />
      <path
         inkscape:connector-curvature="0"
         id="path1510"
         style="fill:#000000;fill-opacity:1;fill-rule:evenodd;stroke:#000000;stroke-width:762;stroke-linecap:butt;stroke-linejoin:miter;stroke-miterlimit:11.47371292;stroke-dasharray:none;stroke-opacity:1"
         d="m 72784.13,744916.3 1338.19,3428 1178.375,-3486.2 -2516.565,58.2 z" />
    </g>
    <g
       id="g1512"
       transform="matrix(0.00246063,0,0,0.00246063,-4.978e-5,-1213.8904)">
      <g
         id="g1514">
        <g
           id="g1516">
          <path
             inkscape:connector-curvature="0"
             id="path1518"
             style="fill:#000000;fill-opacity:0;fill-rule:nonzero;stroke:none"
             d="m 77449,723952 25344,0 0,13992 -25344,0 0,-13992 z" />
        </g>
      </g>
    </g>
    <g
       transform="matrix(0.93749812,0,0,0.93749812,-4.978e-5,-1213.8904)"
       id="g1520">
      <g
         transform="translate(203.27821,1900.1365)"
         id="g1522">
        <text
           id="text1524"
           style="font-variant:normal;font-weight:normal;font-size:18.66666603px;font-family:Arial;-inkscape-font-specification:ArialMT;writing-mode:lr-tb;fill:#000000;fill-opacity:1;fill-rule:nonzero;stroke:none"
           transform="translate(9,26.919998)">
          <tspan
             id="tspan1526"
             sodipodi:role="line"
             y="0"
             x="0 5.1706667 15.549333 19.693333 29.026665 39.405331">[else]</tspan>
        </text>
      </g>
    </g>
    <g
       id="g1530"
       transform="matrix(0.00246063,0,0,0.00246063,-4.978e-5,-1213.8904)">
      <g
         id="g1532">
        <g
           id="g1534">
          <path
             inkscape:connector-curvature="0"
             id="path1536"
             style="fill:#000000;fill-opacity:0;fill-rule:nonzero;stroke:none"
             d="m 73512,677037 0,30528" />
        </g>
      </g>
      <path
         inkscape:connector-curvature="0"
         id="path1538"
         style="fill:none;stroke:#000000;stroke-width:762;stroke-linecap:butt;stroke-linejoin:round;stroke-miterlimit:14.3355875;stroke-dasharray:none;stroke-opacity:1"
         d="m 73512,677037 0,25956" />
      <path
         inkscape:connector-curvature="0"
         id="path1540"
         style="fill:#000000;fill-opacity:1;fill-rule:evenodd;stroke:#000000;stroke-width:762;stroke-linecap:butt;stroke-linejoin:miter;stroke-miterlimit:11.47371292;stroke-dasharray:none;stroke-opacity:1"
         d="m 72253.38,702993 1258.62,3458 1258.62,-3458 -2517.24,0 z" />
    </g>
    <g
       id="g1542"
       transform="matrix(0.00246063,0,0,0.00246063,-4.978e-5,-1213.8904)">
      <g
         id="g1544">
        <path
           inkscape:connector-curvature="0"
           id="path1546"
           style="fill:#ffffff;fill-opacity:1;fill-rule:nonzero;stroke:none"
           d="m 98964,709758 0,0 c 0,-1432.6 1161.38,-2594 2594,-2594 l 56144,0 c 687.97,0 1347.77,273.3 1834.23,759.75 486.47,486.5 759.77,1146.25 759.77,1834.25 l 0,10376 c 0,1432.6 -1161.38,2594 -2594,2594 l -56144,0 c -1432.62,0 -2594,-1161.4 -2594,-2594 l 0,-10376 z" />
      </g>
      <path
         inkscape:connector-curvature="0"
         id="path1548"
         style="fill:none;stroke:#000000;stroke-width:762;stroke-linecap:butt;stroke-linejoin:round;stroke-miterlimit:14.3355875;stroke-dasharray:none;stroke-opacity:1"
         d="m 98964,709758 0,0 c 0,-1432.6 1161.38,-2594 2594,-2594 l 56144,0 c 687.97,0 1347.77,273.3 1834.23,759.75 486.47,486.5 759.77,1146.25 759.77,1834.25 l 0,10376 c 0,1432.6 -1161.38,2594 -2594,2594 l -56144,0 c -1432.62,0 -2594,-1161.4 -2594,-2594 l 0,-10376 z" />
    </g>
    <g
       transform="matrix(0.93749812,0,0,0.93749812,-4.978e-5,-1213.8904)"
       id="g1550">
      <g
         transform="translate(261.74216,1858.0676)"
         id="g1552">
        <text
           id="text1554"
           style="font-variant:normal;font-weight:normal;font-size:18.66666603px;font-family:Arial;-inkscape-font-specification:ArialMT;writing-mode:lr-tb;fill:#000000;fill-opacity:1;fill-rule:nonzero;stroke:none"
           transform="translate(9,25.351084)">
          <tspan
             id="tspan1556"
             sodipodi:role="line"
             y="0"
             x="0 6.2159996 16.594666 32.143997 42.522667 51.855999 62.234665 67.405334 72.575996 78.792 89.170662 104.71999 109.89066 114.03466 118.17867 127.51199">remove from list</tspan>
        </text>
      </g>
    </g>
    <g
       id="g1560"
       transform="matrix(0.00246063,0,0,0.00246063,-4.978e-5,-1213.8904)">
      <g
         id="g1562">
        <path
           inkscape:connector-curvature="0"
           id="path1564"
           style="fill:#000000;fill-opacity:1;fill-rule:nonzero;stroke:none"
           d="m 74068.06,559468.5 0,0 c 0,-2684.1 2175.9,-4860 4860,-4860 l 0,0 c 1288.956,0 2525.11,512.06 3436.54,1423.44 911.43,911.46 1423.46,2147.62 1423.46,3436.56 l 0,0 c 0,2684.1 -2175.896,4860 -4860,4860 l 0,0 c -2684.1,0 -4860,-2175.9 -4860,-4860 z" />
      </g>
    </g>
    <g
       id="g1566"
       transform="matrix(0.00246063,0,0,0.00246063,-4.978e-5,-1213.8904)">
      <g
         id="g1568">
        <g
           id="g1570">
          <path
             inkscape:connector-curvature="0"
             id="path1572"
             style="fill:#000000;fill-opacity:0;fill-rule:nonzero;stroke:none"
             d="m 78851.06,564331.5 0,17676" />
        </g>
      </g>
      <path
         inkscape:connector-curvature="0"
         id="path1574"
         style="fill:none;stroke:#000000;stroke-width:762;stroke-linecap:butt;stroke-linejoin:round;stroke-miterlimit:14.3355875;stroke-dasharray:none;stroke-opacity:1"
         d="m 78851.06,564331.5 0,13104" />
      <path
         inkscape:connector-curvature="0"
         id="path1576"
         style="fill:#000000;fill-opacity:1;fill-rule:evenodd;stroke:#000000;stroke-width:762;stroke-linecap:butt;stroke-linejoin:miter;stroke-miterlimit:11.47371292;stroke-dasharray:none;stroke-opacity:1"
         d="m 77592.445,577435.5 1258.615,3458 1258.62,-3458 -2517.235,0 z" />
    </g>
    <g
       id="g1578"
       transform="matrix(0.00246063,0,0,0.00246063,-4.978e-5,-1213.8904)">
      <g
         id="g1580">
        <path
           inkscape:connector-curvature="0"
           id="path1582"
           style="fill:#000000;fill-opacity:1;fill-rule:nonzero;stroke:none"
           d="m 94452.24,888446 0,0 c 0,-2684.1 2175.9,-4860 4860,-4860 l 0,0 c 1288.96,0 2525.12,512.06 3436.54,1423.44 911.43,911.46 1423.46,2147.62 1423.46,3436.56 l 0,0 c 0,2684.1 -2175.89,4860 -4860,4860 l 0,0 c -2684.1,0 -4860,-2175.9 -4860,-4860 z" />
      </g>
    </g>
    <g
       id="g1584"
       transform="matrix(0.00246063,0,0,0.00246063,-4.978e-5,-1213.8904)">
      <g
         id="g1586">
        <g
           id="g1588">
          <path
             inkscape:connector-curvature="0"
             id="path1590"
             style="fill:#000000;fill-opacity:0;fill-rule:nonzero;stroke:none"
             d="m 92316.24,888446 0,0 c 0,-3863.8 3132.22,-6996 6996,-6996 l 0,0 c 1855.46,0 3634.92,737.06 4946.92,2049.06 1312,1312 2049.08,3091.5 2049.08,4946.94 l 0,0 c 0,3863.8 -3132.21,6996 -6996,6996 l 0,0 c -3863.78,0 -6996,-3132.2 -6996,-6996 z" />
        </g>
      </g>
      <path
         inkscape:connector-curvature="0"
         id="path1592"
         style="fill:none;stroke:#000000;stroke-width:762;stroke-linecap:butt;stroke-linejoin:round;stroke-miterlimit:14.3355875;stroke-dasharray:none;stroke-opacity:1"
         d="m 92316.24,888446 0,0 c 0,-3863.8 3132.22,-6996 6996,-6996 l 0,0 c 1855.46,0 3634.92,737.06 4946.92,2049.06 1312,1312 2049.08,3091.5 2049.08,4946.94 l 0,0 c 0,3863.8 -3132.21,6996 -6996,6996 l 0,0 c -3863.78,0 -6996,-3132.2 -6996,-6996 z" />
    </g>
    <g
       id="g1594"
       transform="matrix(0.00246063,0,0,0.00246063,-4.978e-5,-1213.8904)">
      <g
         id="g1596">
        <g
           id="g1598">
          <path
             inkscape:connector-curvature="0"
             id="path1600"
             style="fill:#000000;fill-opacity:0;fill-rule:nonzero;stroke:none"
             d="m 99312.06,862159 0,17676" />
        </g>
      </g>
      <path
         inkscape:connector-curvature="0"
         id="path1602"
         style="fill:none;stroke:#000000;stroke-width:762;stroke-linecap:butt;stroke-linejoin:round;stroke-miterlimit:14.3355875;stroke-dasharray:none;stroke-opacity:1"
         d="m 99312.06,862159 0,13104" />
      <path
         inkscape:connector-curvature="0"
         id="path1604"
         style="fill:#000000;fill-opacity:1;fill-rule:evenodd;stroke:#000000;stroke-width:762;stroke-linecap:butt;stroke-linejoin:miter;stroke-miterlimit:11.47371292;stroke-dasharray:none;stroke-opacity:1"
         d="m 98053.445,875263 1258.615,3458 1258.62,-3458 -2517.235,0 z" />
    </g>
    <g
       id="g1950"
       transform="matrix(0.00246063,0,0,0.00246063,-4.978e-5,-1213.8904)">
      <g
         id="g1952">
        <g
           id="g1954">
          <path
             inkscape:connector-curvature="0"
             id="path1956"
             style="fill:#000000;fill-opacity:0;fill-rule:nonzero;stroke:none"
             d="m 29052,536622 134124,0 0,18288 -134124,0 0,-18288 z" />
        </g>
      </g>
    </g>
    <g
       transform="matrix(0.93749812,0,0,0.93749812,-4.978e-5,-1213.8904)"
       id="g1958">
      <g
         transform="translate(76.25197,1408.4567)"
         id="g1960">
        <text
           id="text1962"
           style="font-variant:normal;font-weight:bold;font-size:18.66666603px;font-family:Arial;-inkscape-font-specification:Arial-BoldMT;writing-mode:lr-tb;fill:#000000;fill-opacity:1;fill-rule:nonzero;stroke:none"
           transform="translate(9,26.919998)">
          <tspan
             id="tspan1964"
             sodipodi:role="line"
             y="0"
             x="0 11.386666 16.557333 21.727999 27.943998 38.322666 45.584 50.754665 55.925331 67.311996 78.698662 90.085327 100.464 110.84266 117.05866 122.22933 133.616 145.00266">Filter innovations</tspan>
        </text>
      </g>
    </g>
    <g
       id="g3296"
       transform="matrix(0.00246063,0,0,0.00246063,-4.978e-5,-1213.8904)">
      <g
         id="g3298">
        <path
           inkscape:connector-curvature="0"
           id="path3300"
           style="fill:#ffffff;fill-opacity:1;fill-rule:nonzero;stroke:none"
           d="m 36940,755172.5 0,0 c 0,-2380.4 1929.652,-4310 4310,-4310 l 71072,0 c 1143.09,0 2239.34,454.06 3047.63,1262.4 808.28,808.2 1262.37,1904.54 1262.37,3047.6 l 0,17240 c 0,2380.4 -1929.66,4310 -4310,4310 l -71072,0 c -2380.348,0 -4310,-1929.6 -4310,-4310 l 0,-17240 z" />
      </g>
      <path
         inkscape:connector-curvature="0"
         id="path3302"
         style="fill:none;stroke:#000000;stroke-width:762;stroke-linecap:butt;stroke-linejoin:round;stroke-miterlimit:14.3355875;stroke-dasharray:none;stroke-opacity:1"
         d="m 36940,755172.5 0,0 c 0,-2380.4 1929.652,-4310 4310,-4310 l 71072,0 c 1143.09,0 2239.34,454.06 3047.63,1262.4 808.28,808.2 1262.37,1904.54 1262.37,3047.6 l 0,17240 c 0,2380.4 -1929.66,4310 -4310,4310 l -71072,0 c -2380.348,0 -4310,-1929.6 -4310,-4310 l 0,-17240 z" />
    </g>
    <g
       transform="matrix(0.93749812,0,0,0.93749812,-4.978e-5,-1213.8904)"
       id="g3304">
      <g
         transform="translate(100.26865,1974.0809)"
         id="g3306">
        <text
           id="text3308"
           style="font-variant:normal;font-weight:normal;font-size:18.66666603px;font-family:Arial;-inkscape-font-specification:ArialMT;writing-mode:lr-tb;fill:#000000;fill-opacity:1;fill-rule:nonzero;stroke:none"
           transform="translate(9,37.543736)">
          <tspan
             id="tspan3310"
             sodipodi:role="line"
             y="0"
             x="0 5.1706667 15.549333 24.882666 30.053331 35.223999 39.368 49.746666 60.125332 70.503998 79.837334 90.215996 95.386665 99.530663 109.90933 120.28799 125.45866 135.83733 146.21599">test innovation age</tspan>
        </text>
      </g>
    </g>
    <g
       id="g3314"
       transform="matrix(0.00246063,0,0,0.00246063,-4.978e-5,-1213.8904)">
      <g
         id="g3316">
        <g
           id="g3318">
          <path
             inkscape:connector-curvature="0"
             id="path3320"
             style="fill:#000000;fill-opacity:0;fill-rule:nonzero;stroke:none"
             d="m 67604,813966.5 6996,-6996 6996,6996 -6996,6996 -6996,-6996 z" />
        </g>
      </g>
      <path
         inkscape:connector-curvature="0"
         id="path3322"
         style="fill:none;stroke:#000000;stroke-width:762;stroke-linecap:butt;stroke-linejoin:round;stroke-miterlimit:14.3355875;stroke-dasharray:none;stroke-opacity:1"
         d="m 67604,813966.5 6996,-6996 6996,6996 -6996,6996 -6996,-6996 z" />
    </g>
    <g
       id="g3324"
       transform="matrix(0.00246063,0,0,0.00246063,-4.978e-5,-1213.8904)">
      <g
         id="g3326">
        <g
           id="g3328">
          <path
             inkscape:connector-curvature="0"
             id="path3330"
             style="fill:#000000;fill-opacity:0;fill-rule:nonzero;stroke:none"
             d="m 82376.06,813581.5 17676,0" />
        </g>
      </g>
      <path
         inkscape:connector-curvature="0"
         id="path3332"
         style="fill:none;stroke:#000000;stroke-width:762;stroke-linecap:butt;stroke-linejoin:round;stroke-miterlimit:14.3355875;stroke-dasharray:none;stroke-opacity:1"
         d="m 82376.06,813581.5 13104,0" />
      <path
         inkscape:connector-curvature="0"
         id="path3334"
         style="fill:#000000;fill-opacity:1;fill-rule:evenodd;stroke:#000000;stroke-width:762;stroke-linecap:butt;stroke-linejoin:miter;stroke-miterlimit:11.47371292;stroke-dasharray:none;stroke-opacity:1"
         d="m 95480.06,814840.1 3458.03,-1258.6 -3458.03,-1258.6 0,2517.2 z" />
    </g>
    <g
       id="g3336"
       transform="matrix(0.00246063,0,0,0.00246063,-4.978e-5,-1213.8904)">
      <g
         id="g3338">
        <g
           id="g3340">
          <path
             inkscape:connector-curvature="0"
             id="path3342"
             style="fill:#000000;fill-opacity:0;fill-rule:nonzero;stroke:none"
             d="m 74126,778362 85536,0 0,13992 -85536,0 0,-13992 z" />
        </g>
      </g>
    </g>
    <g
       transform="matrix(0.93749812,0,0,0.93749812,-4.978e-5,-1213.8904)"
       id="g3344">
      <g
         transform="translate(194.55643,2042.9448)"
         id="g3346">
        <text
           id="text3348"
           style="font-variant:normal;font-weight:normal;font-size:18.66666603px;font-family:Arial;-inkscape-font-specification:ArialMT;writing-mode:lr-tb;fill:#000000;fill-opacity:1;fill-rule:nonzero;stroke:none"
           transform="translate(9,26.919998)">
          <tspan
             id="tspan3350"
             sodipodi:role="line"
             y="0"
             x="0 5.1706667 15.549333 25.927999 36.306664 41.477333 52.359997 57.530666 61.674664 72.053329 82.431999 92.810661 102.144 112.52266 117.69333 121.83733 132.21599 142.59467 152.97333 157.11732 162.28799 172.66666 177.83733 188.21599">[age &gt; innovationLife ?]</tspan>
        </text>
      </g>
    </g>
    <g
       id="g3354"
       transform="matrix(0.00246063,0,0,0.00246063,-4.978e-5,-1213.8904)">
      <g
         id="g3356">
        <g
           id="g3358">
          <path
             inkscape:connector-curvature="0"
             id="path3360"
             style="fill:#000000;fill-opacity:0;fill-rule:nonzero;stroke:none"
             d="m 74600.06,820962.5 636,27516" />
        </g>
      </g>
      <path
         inkscape:connector-curvature="0"
         id="path3362"
         style="fill:none;stroke:#000000;stroke-width:762;stroke-linecap:butt;stroke-linejoin:round;stroke-miterlimit:14.3355875;stroke-dasharray:none;stroke-opacity:1"
         d="m 74600.06,820962.5 530.354,22945.25" />
      <path
         inkscape:connector-curvature="0"
         id="path3364"
         style="fill:#000000;fill-opacity:1;fill-rule:evenodd;stroke:#000000;stroke-width:762;stroke-linecap:butt;stroke-linejoin:miter;stroke-miterlimit:11.47371292;stroke-dasharray:none;stroke-opacity:1"
         d="m 73872.13,843936.8 1338.19,3428 1178.375,-3486.2 -2516.565,58.2 z" />
    </g>
    <g
       id="g3366"
       transform="matrix(0.00246063,0,0,0.00246063,-4.978e-5,-1213.8904)">
      <g
         id="g3368">
        <g
           id="g3370">
          <path
             inkscape:connector-curvature="0"
             id="path3372"
             style="fill:#000000;fill-opacity:0;fill-rule:nonzero;stroke:none"
             d="m 78537,822972.5 25344,0 0,13992 -25344,0 0,-13992 z" />
        </g>
      </g>
    </g>
    <g
       transform="matrix(0.93749812,0,0,0.93749812,-4.978e-5,-1213.8904)"
       id="g3374">
      <g
         transform="translate(206.13387,2160.0327)"
         id="g3376">
        <text
           id="text3378"
           style="font-variant:normal;font-weight:normal;font-size:18.66666603px;font-family:Arial;-inkscape-font-specification:ArialMT;writing-mode:lr-tb;fill:#000000;fill-opacity:1;fill-rule:nonzero;stroke:none"
           transform="translate(9,26.919998)">
          <tspan
             id="tspan3380"
             sodipodi:role="line"
             y="0"
             x="0 5.1706667 15.549333 19.693333 29.026665 39.405331">[else]</tspan>
        </text>
      </g>
    </g>
    <g
       id="g3384"
       transform="matrix(0.00246063,0,0,0.00246063,-4.978e-5,-1213.8904)">
      <g
         id="g3386">
        <g
           id="g3388">
          <path
             inkscape:connector-curvature="0"
             id="path3390"
             style="fill:#000000;fill-opacity:0;fill-rule:nonzero;stroke:none"
             d="m 74600,776057.5 0,30528" />
        </g>
      </g>
      <path
         inkscape:connector-curvature="0"
         id="path3392"
         style="fill:none;stroke:#000000;stroke-width:762;stroke-linecap:butt;stroke-linejoin:round;stroke-miterlimit:14.3355875;stroke-dasharray:none;stroke-opacity:1"
         d="m 74600,776057.5 0,25956" />
      <path
         inkscape:connector-curvature="0"
         id="path3394"
         style="fill:#000000;fill-opacity:1;fill-rule:evenodd;stroke:#000000;stroke-width:762;stroke-linecap:butt;stroke-linejoin:miter;stroke-miterlimit:11.47371292;stroke-dasharray:none;stroke-opacity:1"
         d="m 73341.38,802013.5 1258.62,3458 1258.62,-3458 -2517.24,0 z" />
    </g>
    <g
       id="g3396"
       transform="matrix(0.00246063,0,0,0.00246063,-4.978e-5,-1213.8904)">
      <g
         id="g3398">
        <path
           inkscape:connector-curvature="0"
           id="path3400"
           style="fill:#ffffff;fill-opacity:1;fill-rule:nonzero;stroke:none"
           d="m 100052,808778.5 0,0 c 0,-1432.6 1161.38,-2594 2594,-2594 l 56144,0 c 687.97,0 1347.77,273.3 1834.23,759.75 486.47,486.5 759.77,1146.25 759.77,1834.25 l 0,10376 c 0,1432.6 -1161.38,2594 -2594,2594 l -56144,0 c -1432.62,0 -2594,-1161.4 -2594,-2594 l 0,-10376 z" />
      </g>
      <path
         inkscape:connector-curvature="0"
         id="path3402"
         style="fill:none;stroke:#000000;stroke-width:762;stroke-linecap:butt;stroke-linejoin:round;stroke-miterlimit:14.3355875;stroke-dasharray:none;stroke-opacity:1"
         d="m 100052,808778.5 0,0 c 0,-1432.6 1161.38,-2594 2594,-2594 l 56144,0 c 687.97,0 1347.77,273.3 1834.23,759.75 486.47,486.5 759.77,1146.25 759.77,1834.25 l 0,10376 c 0,1432.6 -1161.38,2594 -2594,2594 l -56144,0 c -1432.62,0 -2594,-1161.4 -2594,-2594 l 0,-10376 z" />
    </g>
    <g
       transform="matrix(0.93749812,0,0,0.93749812,-4.978e-5,-1213.8904)"
       id="g3404">
      <g
         transform="translate(264.59778,2117.9639)"
         id="g3406">
        <text
           id="text3408"
           style="font-variant:normal;font-weight:normal;font-size:18.66666603px;font-family:Arial;-inkscape-font-specification:ArialMT;writing-mode:lr-tb;fill:#000000;fill-opacity:1;fill-rule:nonzero;stroke:none"
           transform="translate(9,25.351084)">
          <tspan
             id="tspan3410"
             sodipodi:role="line"
             y="0"
             x="0 6.2159996 16.594666 32.143997 42.522667 51.855999 62.234665 67.405334 72.575996 78.792 89.170662 104.71999 109.89066 114.03466 118.17867 127.51199">remove from list</tspan>
        </text>
      </g>
    </g>
    <g
       id="g3414"
       transform="matrix(0.00246063,0,0,0.00246063,-4.978e-5,-1213.8904)">
      <g
         id="g3416">
        <path
           inkscape:connector-curvature="0"
           id="path3418"
           style="fill:#ffffff;fill-opacity:1;fill-rule:nonzero;stroke:none"
           d="m 83440.234,854689.2 11052,0 0,11268 -11052,0 0,-11268 z" />
      </g>
      <path
         inkscape:connector-curvature="0"
         id="path3420"
         style="fill:none;stroke:#000000;stroke-width:762;stroke-linecap:butt;stroke-linejoin:round;stroke-miterlimit:14.3355875;stroke-dasharray:none;stroke-opacity:1"
         d="m 83440.234,854689.2 11052,0 0,11268 -11052,0 0,-11268 z" />
    </g>
    <g
       id="g3422"
       transform="matrix(0.00246063,0,0,0.00246063,-4.978e-5,-1213.8904)">
      <g
         id="g3424">
        <path
           inkscape:connector-curvature="0"
           id="path3426"
           style="fill:#ffffff;fill-opacity:1;fill-rule:nonzero;stroke:none"
           d="m 94482.46,854689.2 11052,0 0,11268 -11052,0 0,-11268 z" />
      </g>
      <path
         inkscape:connector-curvature="0"
         id="path3428"
         style="fill:none;stroke:#000000;stroke-width:762;stroke-linecap:butt;stroke-linejoin:round;stroke-miterlimit:14.3355875;stroke-dasharray:none;stroke-opacity:1"
         d="m 94482.46,854689.2 11052,0 0,11268 -11052,0 0,-11268 z" />
    </g>
    <g
       id="g3430"
       transform="matrix(0.00246063,0,0,0.00246063,-4.978e-5,-1213.8904)">
      <g
         id="g3432">
        <path
           inkscape:connector-curvature="0"
           id="path3434"
           style="fill:#ffffff;fill-opacity:1;fill-rule:nonzero;stroke:none"
           d="m 105534.46,854689.2 11052,0 0,11268 -11052,0 0,-11268 z" />
      </g>
      <path
         inkscape:connector-curvature="0"
         id="path3436"
         style="fill:none;stroke:#000000;stroke-width:762;stroke-linecap:butt;stroke-linejoin:round;stroke-miterlimit:14.3355875;stroke-dasharray:none;stroke-opacity:1"
         d="m 105534.46,854689.2 11052,0 0,11268 -11052,0 0,-11268 z" />
    </g>
    <g
       id="g3438"
       transform="matrix(0.00246063,0,0,0.00246063,-4.978e-5,-1213.8904)">
      <g
         id="g3440">
        <g
           id="g3442">
          <path
             inkscape:connector-curvature="0"
             id="path3444"
             style="fill:#000000;fill-opacity:0;fill-rule:nonzero;stroke:none"
             d="m 79134,697629 25344,0 0,13992 -25344,0 0,-13992 z" />
        </g>
      </g>
    </g>
    <g
       transform="matrix(0.93749812,0,0,0.93749812,-4.978e-5,-1213.8904)"
       id="g3446">
      <g
         transform="translate(207.70079,1831.0472)"
         id="g3448">
        <text
           id="text3450"
           style="font-variant:normal;font-weight:normal;font-size:18.66666603px;font-family:Arial;-inkscape-font-specification:ArialMT;writing-mode:lr-tb;fill:#000000;fill-opacity:1;fill-rule:nonzero;stroke:none"
           transform="translate(9,26.919998)">
          <tspan
             id="tspan3452"
             sodipodi:role="line"
             y="0"
             x="0 5.1706667 14.504 24.882666 34.216">[yes]</tspan>
        </text>
      </g>
    </g>
    <g
       id="g3456"
       transform="matrix(0.00246063,0,0,0.00246063,-4.978e-5,-1213.8904)">
      <g
         id="g3458">
        <g
           id="g3460">
          <path
             inkscape:connector-curvature="0"
             id="path3462"
             style="fill:#000000;fill-opacity:0;fill-rule:nonzero;stroke:none"
             d="m 78537,799020 25344,0 0,13992 -25344,0 0,-13992 z" />
        </g>
      </g>
    </g>
    <g
       transform="matrix(0.93749812,0,0,0.93749812,-4.978e-5,-1213.8904)"
       id="g3464">
      <g
         transform="translate(206.13387,2097.1653)"
         id="g3466">
        <text
           id="text3468"
           style="font-variant:normal;font-weight:normal;font-size:18.66666603px;font-family:Arial;-inkscape-font-specification:ArialMT;writing-mode:lr-tb;fill:#000000;fill-opacity:1;fill-rule:nonzero;stroke:none"
           transform="translate(9,26.919998)">
          <tspan
             id="tspan3470"
             sodipodi:role="line"
             y="0"
             x="0 5.1706667 14.504 24.882666 34.216">[yes]</tspan>
        </text>
      </g>
    </g>
  </g>
</svg>
