<?xml version="1.0" encoding="UTF-8" standalone="no"?>
<!-- Created with Inkscape (http://www.inkscape.org/) -->

<svg
   xmlns:dc="http://purl.org/dc/elements/1.1/"
   xmlns:cc="http://creativecommons.org/ns#"
   xmlns:rdf="http://www.w3.org/1999/02/22-rdf-syntax-ns#"
   xmlns:svg="http://www.w3.org/2000/svg"
   xmlns="http://www.w3.org/2000/svg"
   xmlns:sodipodi="http://sodipodi.sourceforge.net/DTD/sodipodi-0.dtd"
   xmlns:inkscape="http://www.inkscape.org/namespaces/inkscape"
   width="104.20417mm"
   height="169.6125mm"
   viewBox="0 0 369.22737 600.98918"
   id="svg17669"
   version="1.1"
   inkscape:version="0.91 r13725"
   sodipodi:docname="slocal_apply.svg">
  <defs
     id="defs17671" />
  <sodipodi:namedview
     id="base"
     pagecolor="#ffffff"
     bordercolor="#666666"
     borderopacity="1.0"
     inkscape:pageopacity="0.0"
     inkscape:pageshadow="2"
     inkscape:zoom="0.7"
     inkscape:cx="8.8564374"
     inkscape:cy="69.214376"
     inkscape:document-units="px"
     inkscape:current-layer="layer1"
     showgrid="false"
     fit-margin-top="1"
     fit-margin-left="1"
     fit-margin-right="1"
     fit-margin-bottom="1"
     inkscape:window-width="1883"
     inkscape:window-height="1176"
     inkscape:window-x="37"
     inkscape:window-y="24"
     inkscape:window-maximized="1" />
  <metadata
     id="metadata17674">
    <rdf:RDF>
      <cc:Work
         rdf:about="">
        <dc:format>image/svg+xml</dc:format>
        <dc:type
           rdf:resource="http://purl.org/dc/dcmitype/StillImage" />
        <dc:title></dc:title>
      </cc:Work>
    </rdf:RDF>
  </metadata>
  <g
     inkscape:label="Calque 1"
     inkscape:groupmode="layer"
     id="layer1"
     transform="translate(-15.386295,176.70379)">
    <g
       id="g30"
       transform="matrix(0.00246063,0,0,0.00246063,-1302.5542,-1037.4703)">
      <g
         id="g32">
        <path
           inkscape:connector-curvature="0"
           id="path34"
           style="fill:#ffffff;fill-opacity:1;fill-rule:nonzero;stroke:none"
           d="m 537432,374142.94 0,0 c 0,-12429.97 10076.5,-22506.44 22506.44,-22506.44 l 90023.12,0 0,0 c 5969.04,0 11693.69,2371.22 15914.44,6592 4220.8,4220.75 6592,9945.38 6592,15914.44 l 0,195587.12 c 0,12430 -10076.5,22506.44 -22506.44,22506.44 l -90023.12,0 c -12429.94,0 -22506.44,-10076.44 -22506.44,-22506.44 l 0,-195587.12 z" />
      </g>
      <path
         inkscape:connector-curvature="0"
         id="path36"
         style="fill:none;stroke:#000000;stroke-width:762;stroke-linecap:butt;stroke-linejoin:round;stroke-miterlimit:14.3355875;stroke-dasharray:none;stroke-opacity:1"
         d="m 537432,374142.94 0,0 c 0,-12429.97 10076.5,-22506.44 22506.44,-22506.44 l 90023.12,0 0,0 c 5969.04,0 11693.69,2371.22 15914.44,6592 4220.8,4220.75 6592,9945.38 6592,15914.44 l 0,195587.12 c 0,12430 -10076.5,22506.44 -22506.44,22506.44 l -90023.12,0 c -12429.94,0 -22506.44,-10076.44 -22506.44,-22506.44 l 0,-195587.12 z" />
    </g>
    <g
       id="g38"
       transform="matrix(0.00246063,0,0,0.00246063,-1302.5542,-1037.4703)">
      <g
         id="g40">
        <g
           id="g42">
          <path
             inkscape:connector-curvature="0"
             id="path44"
             style="fill:#000000;fill-opacity:0;fill-rule:nonzero;stroke:none"
             d="m 552637.75,424510.84 0,0 c 0,-9712.64 7873.69,-17586.34 17586.35,-17586.34 l 70343.3,0 0,0 c 4664.16,0 9137.35,1852.84 12435.4,5150.94 3298.14,3298.06 5150.95,7771.22 5150.95,12435.4 l 0,105623.26 c 0,9712.7 -7873.69,17586.4 -17586.35,17586.4 l -70343.3,0 c -9712.66,0 -17586.35,-7873.7 -17586.35,-17586.4 l 0,-105623.26 z" />
        </g>
      </g>
      <path
         inkscape:connector-curvature="0"
         id="path46"
         style="fill:none;stroke:#000000;stroke-width:762;stroke-linecap:butt;stroke-linejoin:round;stroke-miterlimit:14.3355875;stroke-dasharray:3048, 2286;stroke-dashoffset:0;stroke-opacity:1"
         d="m 552637.75,424510.84 0,0 c 0,-9712.64 7873.69,-17586.34 17586.35,-17586.34 l 70343.3,0 0,0 c 4664.16,0 9137.35,1852.84 12435.4,5150.94 3298.14,3298.06 5150.95,7771.22 5150.95,12435.4 l 0,105623.26 c 0,9712.7 -7873.69,17586.4 -17586.35,17586.4 l -70343.3,0 c -9712.66,0 -17586.35,-7873.7 -17586.35,-17586.4 l 0,-105623.26 z" />
    </g>
    <g
       id="g2322"
       transform="matrix(0.00246063,0,0,0.00246063,-1302.5542,-1037.4703)">
      <g
         id="g2324">
        <path
           inkscape:connector-curvature="0"
           id="path2326"
           style="fill:#000000;fill-opacity:1;fill-rule:nonzero;stroke:none"
           d="m 601213.06,378657 0,0 c 0,-2684.1 2175.88,-4860 4860,-4860 l 0,0 c 1288.94,0 2525.14,512.03 3436.54,1423.47 911.4,911.41 1423.46,2147.59 1423.46,3436.53 l 0,0 c 0,2684.1 -2175.86,4860 -4860,4860 l 0,0 c -2684.12,0 -4860,-2175.9 -4860,-4860 z" />
      </g>
    </g>
    <g
       id="g2328"
       transform="matrix(0.00246063,0,0,0.00246063,-1302.5542,-1037.4703)">
      <g
         id="g2330">
        <g
           id="g2332">
          <path
             inkscape:connector-curvature="0"
             id="path2334"
             style="fill:#000000;fill-opacity:0;fill-rule:nonzero;stroke:none"
             d="m 605996.06,383520 0,17676" />
        </g>
      </g>
      <path
         inkscape:connector-curvature="0"
         id="path2336"
         style="fill:none;stroke:#000000;stroke-width:762;stroke-linecap:butt;stroke-linejoin:round;stroke-miterlimit:14.3355875;stroke-dasharray:none;stroke-opacity:1"
         d="m 605996.06,383520 0,13104" />
      <path
         inkscape:connector-curvature="0"
         id="path2338"
         style="fill:#000000;fill-opacity:1;fill-rule:evenodd;stroke:#000000;stroke-width:762;stroke-linecap:butt;stroke-linejoin:miter;stroke-miterlimit:11.47371292;stroke-dasharray:none;stroke-opacity:1"
         d="m 604737.44,396624 1258.62,3458.03 1258.64,-3458.03 -2517.26,0 z" />
    </g>
    <g
       id="g2340"
       transform="matrix(0.00246063,0,0,0.00246063,-1302.5542,-1037.4703)">
      <g
         id="g2342">
        <path
           inkscape:connector-curvature="0"
           id="path2344"
           style="fill:#000000;fill-opacity:1;fill-rule:nonzero;stroke:none"
           d="m 601359.25,576008.5 0,0 c 0,-2684.1 2175.85,-4860 4860,-4860 l 0,0 c 1288.95,0 2525.15,512.06 3436.55,1423.44 911.4,911.46 1423.45,2147.62 1423.45,3436.56 l 0,0 c 0,2684.1 -2175.85,4860 -4860,4860 l 0,0 c -2684.15,0 -4860,-2175.9 -4860,-4860 z" />
      </g>
    </g>
    <g
       id="g2346"
       transform="matrix(0.00246063,0,0,0.00246063,-1302.5542,-1037.4703)">
      <g
         id="g2348">
        <g
           id="g2350">
          <path
             inkscape:connector-curvature="0"
             id="path2352"
             style="fill:#000000;fill-opacity:0;fill-rule:nonzero;stroke:none"
             d="m 599223.25,576008.5 0,0 c 0,-3863.8 3132.19,-6996 6996,-6996 l 0,0 c 1855.45,0 3634.95,737.06 4946.95,2049.06 1312,1312 2049.05,3091.5 2049.05,4946.94 l 0,0 c 0,3863.8 -3132.19,6996 -6996,6996 l 0,0 c -3863.81,0 -6996,-3132.2 -6996,-6996 z" />
        </g>
      </g>
      <path
         inkscape:connector-curvature="0"
         id="path2354"
         style="fill:none;stroke:#000000;stroke-width:762;stroke-linecap:butt;stroke-linejoin:round;stroke-miterlimit:14.3355875;stroke-dasharray:none;stroke-opacity:1"
         d="m 599223.25,576008.5 0,0 c 0,-3863.8 3132.19,-6996 6996,-6996 l 0,0 c 1855.45,0 3634.95,737.06 4946.95,2049.06 1312,1312 2049.05,3091.5 2049.05,4946.94 l 0,0 c 0,3863.8 -3132.19,6996 -6996,6996 l 0,0 c -3863.81,0 -6996,-3132.2 -6996,-6996 z" />
    </g>
    <g
       id="g2356"
       transform="matrix(0.00246063,0,0,0.00246063,-1302.5542,-1037.4703)">
      <g
         id="g2358">
        <g
           id="g2360">
          <path
             inkscape:connector-curvature="0"
             id="path2362"
             style="fill:#000000;fill-opacity:0;fill-rule:nonzero;stroke:none"
             d="m 606073.06,549528.5 0,17676" />
        </g>
      </g>
      <path
         inkscape:connector-curvature="0"
         id="path2364"
         style="fill:none;stroke:#000000;stroke-width:762;stroke-linecap:butt;stroke-linejoin:round;stroke-miterlimit:14.3355875;stroke-dasharray:none;stroke-opacity:1"
         d="m 606073.06,549528.5 0,13104" />
      <path
         inkscape:connector-curvature="0"
         id="path2366"
         style="fill:#000000;fill-opacity:1;fill-rule:evenodd;stroke:#000000;stroke-width:762;stroke-linecap:butt;stroke-linejoin:miter;stroke-miterlimit:11.47371292;stroke-dasharray:none;stroke-opacity:1"
         d="m 604814.44,562632.5 1258.62,3458 1258.64,-3458 -2517.26,0 z" />
    </g>
    <g
       id="g2368"
       transform="matrix(0.00246063,0,0,0.00246063,-1302.5542,-1037.4703)">
      <g
         id="g2370">
        <g
           id="g2372">
          <path
             inkscape:connector-curvature="0"
             id="path2374"
             style="fill:#000000;fill-opacity:0;fill-rule:nonzero;stroke:none"
             d="m 550101,355810.5 134124,0 0,18288 -134124,0 0,-18288 z" />
        </g>
      </g>
    </g>
    <g
       transform="matrix(0.93749812,0,0,0.93749812,-1302.5542,-1037.4703)"
       id="g2376">
      <g
         transform="translate(1443.8346,933.8858)"
         id="g2378">
        <text
           id="text2380"
           style="font-variant:normal;font-weight:bold;font-size:18.66666603px;font-family:Arial;-inkscape-font-specification:Arial-BoldMT;writing-mode:lr-tb;fill:#000000;fill-opacity:1;fill-rule:nonzero;stroke:none"
           transform="translate(9,26.919998)">
          <tspan
             id="tspan2382"
             sodipodi:role="line"
             y="0"
             x="0 13.477333 24.863998 36.250664 41.421333 51.799999 56.970665 62.141331 73.528 84.914665 96.301331 106.67999 117.05866 123.27467 128.44533 139.832 151.21866">Apply innovations</tspan>
        </text>
      </g>
    </g>
    <g
       id="g2386"
       transform="matrix(0.00246063,0,0,0.00246063,-1302.5542,-1037.4703)">
      <g
         id="g2388">
        <g
           id="g2390">
          <path
             inkscape:connector-curvature="0"
             id="path2392"
             style="fill:#000000;fill-opacity:0;fill-rule:nonzero;stroke:none"
             d="m 543602,410162 113316,0 0,11040 -113316,0 0,-11040 z" />
        </g>
      </g>
    </g>
    <g
       transform="matrix(0.93749812,0,0,0.93749812,-1302.5542,-1037.4703)"
       id="g2394">
      <g
         transform="translate(1426.7769,1076.5406)"
         id="g2396">
        <text
           id="text2398"
           style="font-style:italic;font-variant:normal;font-size:18.66666603px;font-family:Arial;-inkscape-font-specification:Arial-ItalicMT;writing-mode:lr-tb;fill:#000000;fill-opacity:1;fill-rule:nonzero;stroke:none"
           transform="translate(111.8365,26.919998)">
          <tspan
             id="tspan2400"
             sodipodi:role="line"
             y="0"
             x="0 10.882667 21.765333 26.935999 31.079998 41.458664 51.83733 62.216 67.386665 78.269333">&lt;&lt; loop &gt;&gt;</tspan>
        </text>
      </g>
    </g>
    <g
       id="g2404"
       transform="matrix(0.00246063,0,0,0.00246063,-1302.5542,-1037.4703)">
      <g
         id="g2406">
        <path
           inkscape:connector-curvature="0"
           id="path2408"
           style="fill:#ffffff;fill-opacity:1;fill-rule:nonzero;stroke:none"
           d="m 589651.25,401196.7 11052,0 0,11268 -11052,0 0,-11268 z" />
      </g>
      <path
         inkscape:connector-curvature="0"
         id="path2410"
         style="fill:none;stroke:#000000;stroke-width:762;stroke-linecap:butt;stroke-linejoin:round;stroke-miterlimit:14.3355875;stroke-dasharray:none;stroke-opacity:1"
         d="m 589651.25,401196.7 11052,0 0,11268 -11052,0 0,-11268 z" />
    </g>
    <g
       id="g2412"
       transform="matrix(0.00246063,0,0,0.00246063,-1302.5542,-1037.4703)">
      <g
         id="g2414">
        <path
           inkscape:connector-curvature="0"
           id="path2416"
           style="fill:#ffffff;fill-opacity:1;fill-rule:nonzero;stroke:none"
           d="m 600693.44,401196.7 11052,0 0,11268 -11052,0 0,-11268 z" />
      </g>
      <path
         inkscape:connector-curvature="0"
         id="path2418"
         style="fill:none;stroke:#000000;stroke-width:762;stroke-linecap:butt;stroke-linejoin:round;stroke-miterlimit:14.3355875;stroke-dasharray:none;stroke-opacity:1"
         d="m 600693.44,401196.7 11052,0 0,11268 -11052,0 0,-11268 z" />
    </g>
    <g
       id="g2420"
       transform="matrix(0.00246063,0,0,0.00246063,-1302.5542,-1037.4703)">
      <g
         id="g2422">
        <g
           id="g2424">
          <path
             inkscape:connector-curvature="0"
             id="path2426"
             style="fill:#000000;fill-opacity:0;fill-rule:nonzero;stroke:none"
             d="m 552029,425356 101628,0 0,11040 -101628,0 0,-11040 z" />
        </g>
      </g>
    </g>
    <g
       transform="matrix(0.93749812,0,0,0.93749812,-1302.5542,-1037.4703)"
       id="g2428">
      <g
         transform="translate(1448.895,1116.4199)"
         id="g2430">
        <text
           id="text2432"
           style="font-style:italic;font-variant:normal;font-size:18.66666603px;font-family:Arial;-inkscape-font-specification:Arial-ItalicMT;writing-mode:lr-tb;fill:#000000;fill-opacity:1;fill-rule:nonzero;stroke:none"
           transform="translate(54.5456,26.919998)">
          <tspan
             id="tspan2434"
             sodipodi:role="line"
             y="0"
             x="0 5.1706667 15.549333 21.765333 26.935999 37.314667 47.693333 57.026665 67.405334 72.575996 76.719994 87.098663 97.477333 107.856 117.18933 127.56799 132.73866 136.88266 147.26132">for each innovation</tspan>
        </text>
      </g>
    </g>
    <g
       id="g2438"
       transform="matrix(0.00246063,0,0,0.00246063,-1302.5542,-1037.4703)">
      <g
         id="g2440">
        <g
           id="g2442">
          <path
             inkscape:connector-curvature="0"
             id="path2444"
             style="fill:#000000;fill-opacity:0;fill-rule:nonzero;stroke:none"
             d="m 552134,424780 105108,0" />
        </g>
      </g>
      <path
         inkscape:connector-curvature="0"
         id="path2446"
         style="fill:none;stroke:#000000;stroke-width:762;stroke-linecap:butt;stroke-linejoin:round;stroke-miterlimit:14.3355875;stroke-dasharray:3048, 2286;stroke-dashoffset:0;stroke-opacity:1"
         d="m 552134,424780 105108,0" />
    </g>
    <g
       id="g2448"
       transform="matrix(0.00246063,0,0,0.00246063,-1302.5542,-1037.4703)">
      <g
         id="g2450">
        <g
           id="g2452">
          <path
             inkscape:connector-curvature="0"
             id="path2454"
             style="fill:#000000;fill-opacity:0;fill-rule:nonzero;stroke:none"
             d="m 552134,440020 105384,0" />
        </g>
      </g>
      <path
         inkscape:connector-curvature="0"
         id="path2456"
         style="fill:none;stroke:#000000;stroke-width:762;stroke-linecap:butt;stroke-linejoin:round;stroke-miterlimit:14.3355875;stroke-dasharray:3048, 2286;stroke-dashoffset:0;stroke-opacity:1"
         d="m 552134,440020 105384,0" />
    </g>
    <g
       id="g2458"
       transform="matrix(0.00246063,0,0,0.00246063,-1302.5542,-1037.4703)">
      <g
         id="g2460">
        <path
           inkscape:connector-curvature="0"
           id="path2462"
           style="fill:#ffffff;fill-opacity:1;fill-rule:nonzero;stroke:none"
           d="m 611745.44,401196.7 11052,0 0,11268 -11052,0 0,-11268 z" />
      </g>
      <path
         inkscape:connector-curvature="0"
         id="path2464"
         style="fill:none;stroke:#000000;stroke-width:762;stroke-linecap:butt;stroke-linejoin:round;stroke-miterlimit:14.3355875;stroke-dasharray:none;stroke-opacity:1"
         d="m 611745.44,401196.7 11052,0 0,11268 -11052,0 0,-11268 z" />
    </g>
    <g
       id="g2466"
       transform="matrix(0.00246063,0,0,0.00246063,-1302.5542,-1037.4703)">
      <g
         id="g2468">
        <path
           inkscape:connector-curvature="0"
           id="path2470"
           style="fill:#ffffff;fill-opacity:1;fill-rule:nonzero;stroke:none"
           d="m 562997,475340.5 0,0 c 0,-2380.34 1929.6,-4310 4310,-4310 l 71072,0 c 1143.06,0 2239.4,454.1 3047.6,1262.38 808.34,808.28 1262.4,1904.52 1262.4,3047.62 l 0,17240 c 0,2380.34 -1929.6,4310 -4310,4310 l -71072,0 c -2380.4,0 -4310,-1929.66 -4310,-4310 l 0,-17240 z" />
      </g>
      <path
         inkscape:connector-curvature="0"
         id="path2472"
         style="fill:none;stroke:#000000;stroke-width:762;stroke-linecap:butt;stroke-linejoin:round;stroke-miterlimit:14.3355875;stroke-dasharray:none;stroke-opacity:1"
         d="m 562997,475340.5 0,0 c 0,-2380.34 1929.6,-4310 4310,-4310 l 71072,0 c 1143.06,0 2239.4,454.1 3047.6,1262.38 808.34,808.28 1262.4,1904.52 1262.4,3047.62 l 0,17240 c 0,2380.34 -1929.6,4310 -4310,4310 l -71072,0 c -2380.4,0 -4310,-1929.66 -4310,-4310 l 0,-17240 z" />
    </g>
    <g
       transform="matrix(0.93749812,0,0,0.93749812,-1302.5542,-1037.4703)"
       id="g2474">
      <g
         transform="translate(1480.9957,1239.6138)"
         id="g2476">
        <text
           id="text2478"
           style="font-variant:normal;font-weight:normal;font-size:18.66666603px;font-family:Arial;-inkscape-font-specification:ArialMT;writing-mode:lr-tb;fill:#000000;fill-opacity:1;fill-rule:nonzero;stroke:none"
           transform="translate(9,26.543736)">
          <tspan
             id="tspan2480"
             sodipodi:role="line"
             y="0"
             x="0 4.1440001 19.693333 30.071999 40.450665 49.783997 54.954666 60.125332 66.341331 76.719994 86.053329 96.431999 106.81066 113.02666 122.35999 132.73866 142.07199 147.24266 157.62132 162.79199">impact resources of</tspan>
        </text>
        <text
           id="text2482"
           style="font-variant:normal;font-weight:normal;font-size:18.66666603px;font-family:Arial;-inkscape-font-specification:ArialMT;writing-mode:lr-tb;fill:#000000;fill-opacity:1;fill-rule:nonzero;stroke:none"
           transform="translate(9,48.543736)">
          <tspan
             id="tspan2484"
             sodipodi:role="line"
             y="0"
             x="0 9.333333 19.712 24.882666 30.053331 34.19733 44.576 60.125332 70.503998 80.882668 86.053329">settlement</tspan>
        </text>
      </g>
    </g>
    <g
       id="g2488"
       transform="matrix(0.00246063,0,0,0.00246063,-1302.5542,-1037.4703)">
      <g
         id="g2490">
        <g
           id="g2492">
          <path
             inkscape:connector-curvature="0"
             id="path2494"
             style="fill:#000000;fill-opacity:0;fill-rule:nonzero;stroke:none"
             d="m 600182.56,454129 0,17676" />
        </g>
      </g>
      <path
         inkscape:connector-curvature="0"
         id="path2496"
         style="fill:none;stroke:#000000;stroke-width:762;stroke-linecap:butt;stroke-linejoin:round;stroke-miterlimit:14.3355875;stroke-dasharray:none;stroke-opacity:1"
         d="m 600182.56,454129 0,13104" />
      <path
         inkscape:connector-curvature="0"
         id="path2498"
         style="fill:#000000;fill-opacity:1;fill-rule:evenodd;stroke:#000000;stroke-width:762;stroke-linecap:butt;stroke-linejoin:miter;stroke-miterlimit:11.47371292;stroke-dasharray:none;stroke-opacity:1"
         d="m 598923.94,467233 1258.62,3458.03 1258.64,-3458.03 -2517.26,0 z" />
    </g>
    <g
       id="g2500"
       transform="matrix(0.00246063,0,0,0.00246063,-1302.5542,-1037.4703)">
      <g
         id="g2502">
        <path
           inkscape:connector-curvature="0"
           id="path2504"
           style="fill:#000000;fill-opacity:1;fill-rule:nonzero;stroke:none"
           d="m 595399.56,449266 0,0 c 0,-2684.1 2175.88,-4860 4860,-4860 l 0,0 c 1288.94,0 2525.14,512.03 3436.54,1423.47 911.4,911.41 1423.46,2147.59 1423.46,3436.53 l 0,0 c 0,2684.1 -2175.86,4860 -4860,4860 l 0,0 c -2684.12,0 -4860,-2175.9 -4860,-4860 z" />
      </g>
    </g>
    <g
       id="g2506"
       transform="matrix(0.00246063,0,0,0.00246063,-1302.5542,-1037.4703)">
      <g
         id="g2508">
        <path
           inkscape:connector-curvature="0"
           id="path2510"
           style="fill:#000000;fill-opacity:1;fill-rule:nonzero;stroke:none"
           d="m 595323.25,523209.5 0,0 c 0,-2684.1 2175.85,-4860 4860,-4860 l 0,0 c 1288.95,0 2525.15,512.03 3436.55,1423.47 911.4,911.41 1423.45,2147.59 1423.45,3436.53 l 0,0 c 0,2684.1 -2175.85,4860 -4860,4860 l 0,0 c -2684.15,0 -4860,-2175.9 -4860,-4860 z" />
      </g>
    </g>
    <g
       id="g2512"
       transform="matrix(0.00246063,0,0,0.00246063,-1302.5542,-1037.4703)">
      <g
         id="g2514">
        <g
           id="g2516">
          <path
             inkscape:connector-curvature="0"
             id="path2518"
             style="fill:#000000;fill-opacity:0;fill-rule:nonzero;stroke:none"
             d="m 593187.25,523209.5 0,0 c 0,-3863.78 3132.19,-6996 6996,-6996 l 0,0 c 1855.45,0 3634.95,737.06 4946.95,2049.1 1312,1312 2049.05,3091.43 2049.05,4946.9 l 0,0 c 0,3863.8 -3132.19,6996 -6996,6996 l 0,0 c -3863.81,0 -6996,-3132.2 -6996,-6996 z" />
        </g>
      </g>
      <path
         inkscape:connector-curvature="0"
         id="path2520"
         style="fill:none;stroke:#000000;stroke-width:762;stroke-linecap:butt;stroke-linejoin:round;stroke-miterlimit:14.3355875;stroke-dasharray:none;stroke-opacity:1"
         d="m 593187.25,523209.5 0,0 c 0,-3863.78 3132.19,-6996 6996,-6996 l 0,0 c 1855.45,0 3634.95,737.06 4946.95,2049.1 1312,1312 2049.05,3091.43 2049.05,4946.9 l 0,0 c 0,3863.8 -3132.19,6996 -6996,6996 l 0,0 c -3863.81,0 -6996,-3132.2 -6996,-6996 z" />
    </g>
    <g
       id="g2522"
       transform="matrix(0.00246063,0,0,0.00246063,-1302.5542,-1037.4703)">
      <g
         id="g2524">
        <g
           id="g2526">
          <path
             inkscape:connector-curvature="0"
             id="path2528"
             style="fill:#000000;fill-opacity:0;fill-rule:nonzero;stroke:none"
             d="m 600259.56,497638 0,17676" />
        </g>
      </g>
      <path
         inkscape:connector-curvature="0"
         id="path2530"
         style="fill:none;stroke:#000000;stroke-width:762;stroke-linecap:butt;stroke-linejoin:round;stroke-miterlimit:14.3355875;stroke-dasharray:none;stroke-opacity:1"
         d="m 600259.56,497638 0,13104" />
      <path
         inkscape:connector-curvature="0"
         id="path2532"
         style="fill:#000000;fill-opacity:1;fill-rule:evenodd;stroke:#000000;stroke-width:762;stroke-linecap:butt;stroke-linejoin:miter;stroke-miterlimit:11.47371292;stroke-dasharray:none;stroke-opacity:1"
         d="m 599000.94,510742 1258.62,3458.03 1258.64,-3458.03 -2517.26,0 z" />
    </g>
  </g>
</svg>
