<?xml version="1.0" encoding="UTF-8" standalone="no"?>
<!-- Created with Inkscape (http://www.inkscape.org/) -->

<svg
   xmlns:dc="http://purl.org/dc/elements/1.1/"
   xmlns:cc="http://creativecommons.org/ns#"
   xmlns:rdf="http://www.w3.org/1999/02/22-rdf-syntax-ns#"
   xmlns:svg="http://www.w3.org/2000/svg"
   xmlns="http://www.w3.org/2000/svg"
   xmlns:sodipodi="http://sodipodi.sourceforge.net/DTD/sodipodi-0.dtd"
   xmlns:inkscape="http://www.inkscape.org/namespaces/inkscape"
   width="161.35834mm"
   height="109.90625mm"
   viewBox="0 0 571.74214 389.43159"
   id="svg18585"
   version="1.1"
   inkscape:version="0.91 r13725"
   sodipodi:docname="slocal_uml.svg">
  <defs
     id="defs18587" />
  <sodipodi:namedview
     id="base"
     pagecolor="#ffffff"
     bordercolor="#666666"
     borderopacity="1.0"
     inkscape:pageopacity="0.0"
     inkscape:pageshadow="2"
     inkscape:zoom="0.7"
     inkscape:cx="114.82778"
     inkscape:cy="65.151796"
     inkscape:document-units="px"
     inkscape:current-layer="layer1"
     showgrid="false"
     fit-margin-top="1"
     fit-margin-left="1"
     fit-margin-right="1"
     fit-margin-bottom="1"
     inkscape:window-width="1883"
     inkscape:window-height="1176"
     inkscape:window-x="37"
     inkscape:window-y="24"
     inkscape:window-maximized="1" />
  <metadata
     id="metadata18590">
    <rdf:RDF>
      <cc:Work
         rdf:about="">
        <dc:format>image/svg+xml</dc:format>
        <dc:type
           rdf:resource="http://purl.org/dc/dcmitype/StillImage" />
        <dc:title></dc:title>
      </cc:Work>
    </rdf:RDF>
  </metadata>
  <g
     inkscape:label="Calque 1"
     inkscape:groupmode="layer"
     id="layer1"
     transform="translate(5.8710683,-49.074977)">
    <g
       id="g314"
       transform="matrix(0.00246063,0,0,0.00246063,-1336.9218,-381.56234)">
      <g
         id="g316">
        <path
           inkscape:connector-curvature="0"
           id="path318"
           style="fill:#ffffff;fill-opacity:1;fill-rule:nonzero;stroke:none"
           d="m 543446,205389 72576,0 0,70260 -72576,0 0,-70260 z" />
      </g>
      <path
         inkscape:connector-curvature="0"
         id="path320"
         style="fill:none;stroke:#000000;stroke-width:762;stroke-linecap:butt;stroke-linejoin:round;stroke-miterlimit:14.3355875;stroke-dasharray:none;stroke-opacity:1"
         d="m 543446,205389 72576,0 0,70260 -72576,0 0,-70260 z" />
    </g>
    <g
       id="g322"
       transform="matrix(0.00246063,0,0,0.00246063,-1336.9218,-381.56234)">
      <g
         id="g324">
        <g
           id="g326">
          <path
             inkscape:connector-curvature="0"
             id="path328"
             style="fill:#000000;fill-opacity:0;fill-rule:nonzero;stroke:none"
             d="m 543636,217962 73416,0" />
        </g>
      </g>
      <path
         inkscape:connector-curvature="0"
         id="path330"
         style="fill:none;stroke:#000000;stroke-width:762;stroke-linecap:butt;stroke-linejoin:round;stroke-miterlimit:14.3355875;stroke-dasharray:none;stroke-opacity:1"
         d="m 543636,217962 73416,0" />
    </g>
    <g
       id="g332"
       transform="matrix(0.00246063,0,0,0.00246063,-1336.9218,-381.56234)">
      <g
         id="g334">
        <g
           id="g336">
          <path
             inkscape:connector-curvature="0"
             id="path338"
             style="fill:#000000;fill-opacity:0;fill-rule:nonzero;stroke:none"
             d="m 553161,204531 46104,0 0,11040 -46104,0 0,-11040 z" />
        </g>
      </g>
    </g>
    <g
       transform="matrix(0.93749812,0,0,0.93749812,-1336.9218,-381.56234)"
       id="g340">
      <g
         transform="translate(1451.8661,536.8268)"
         id="g342">
        <text
           id="text344"
           style="font-variant:normal;font-weight:normal;font-size:16px;font-family:Arial;-inkscape-font-specification:ArialMT;writing-mode:lr-tb;fill:#000000;fill-opacity:1;fill-rule:nonzero;stroke:none"
           transform="translate(9,24.36)">
          <tspan
             id="tspan346"
             sodipodi:role="line"
             y="0"
             x="0 10.656 19.552 23.983999 28.416 31.968 40.863998 54.192001 63.088001 71.984001 76.416">Settlements</tspan>
        </text>
      </g>
    </g>
    <g
       id="g350"
       transform="matrix(0.00246063,0,0,0.00246063,-1336.9218,-381.56234)">
      <g
         id="g352">
        <g
           id="g354">
          <path
             inkscape:connector-curvature="0"
             id="path356"
             style="fill:#000000;fill-opacity:0;fill-rule:nonzero;stroke:none"
             d="m 543446,264303 72456,0" />
        </g>
      </g>
      <path
         inkscape:connector-curvature="0"
         id="path358"
         style="fill:none;stroke:#000000;stroke-width:762;stroke-linecap:butt;stroke-linejoin:round;stroke-miterlimit:14.3355875;stroke-dasharray:none;stroke-opacity:1"
         d="m 543446,264303 72456,0" />
    </g>
    <g
       id="g360"
       transform="matrix(0.00246063,0,0,0.00246063,-1336.9218,-381.56234)">
      <g
         id="g362">
        <g
           id="g364">
          <path
             inkscape:connector-curvature="0"
             id="path366"
             style="fill:#000000;fill-opacity:0;fill-rule:nonzero;stroke:none"
             d="m 544231,217464 74256,0 0,54024 -74256,0 0,-54024 z" />
        </g>
      </g>
    </g>
    <g
       transform="matrix(0.93749812,0,0,0.93749812,-1336.9218,-381.56234)"
       id="g368">
      <g
         transform="translate(1428.4279,570.77167)"
         id="g370">
        <text
           id="text372"
           style="font-variant:normal;font-weight:normal;font-size:13.33333302px;font-family:Arial;-inkscape-font-specification:ArialMT;writing-mode:lr-tb;fill:#000000;fill-opacity:1;fill-rule:nonzero;stroke:none"
           transform="translate(9,21.8)">
          <tspan
             id="tspan374"
             sodipodi:role="line"
             y="0"
             x="0 3.6933331 11.106667 14.799999 18.493334 22.186666 25.879999 33.293331">Id : Int</tspan>
        </text>
        <text
           id="text376"
           style="font-variant:normal;font-weight:normal;font-size:13.33333302px;font-family:Arial;-inkscape-font-specification:ArialMT;writing-mode:lr-tb;fill:#000000;fill-opacity:1;fill-rule:nonzero;stroke:none"
           transform="translate(9,37.8)">
          <tspan
             id="tspan378"
             sodipodi:role="line"
             y="0"
             x="0 8.8800001 16.293333 23.706667 31.119999 34.079998 41.493332 45.186665 48.146664 55.559998 62.973331 66.666664 70.360001 74.053329 83.68 91.09333 98.50666 105.92 108.88 116.29333">Population : Double</tspan>
        </text>
        <text
           id="text380"
           style="font-variant:normal;font-weight:normal;font-size:13.33333302px;font-family:Arial;-inkscape-font-specification:ArialMT;writing-mode:lr-tb;fill:#000000;fill-opacity:1;fill-rule:nonzero;stroke:none"
           transform="translate(9,53.8)">
          <tspan
             id="tspan382"
             sodipodi:role="line"
             y="0"
             x="0 8.8800001 15.546666 22.959999 25.92 28.879999 36.293331 43.706665 46.666664 54.079998 63.706665 71.119995 77.786667 84.453331 91.866661 99.279999 103.72 110.38667 117.8 124.46667 128.16 131.85333">AvailableRessources :</tspan>
        </text>
        <text
           id="text384"
           style="font-variant:normal;font-weight:normal;font-size:13.33333302px;font-family:Arial;-inkscape-font-specification:ArialMT;writing-mode:lr-tb;fill:#000000;fill-opacity:1;fill-rule:nonzero;stroke:none"
           transform="translate(9,69.8)">
          <tspan
             id="tspan386"
             sodipodi:role="line"
             y="0"
             x="0 9.6266661 17.039999 24.453333 31.866667 34.826664 42.239998">Double</tspan>
        </text>
        <text
           id="text388"
           style="font-variant:normal;font-weight:normal;font-size:13.33333302px;font-family:Arial;-inkscape-font-specification:ArialMT;writing-mode:lr-tb;fill:#000000;fill-opacity:1;fill-rule:nonzero;stroke:none"
           transform="translate(9,85.8)">
          <tspan
             id="tspan390"
             sodipodi:role="line"
             y="0"
             x="0 8.8800001 12.573333 16.266666 19.959999 29.586666 37 44.413334 51.826664 54.786667">X : Double</tspan>
        </text>
        <text
           id="text392"
           style="font-variant:normal;font-weight:normal;font-size:13.33333302px;font-family:Arial;-inkscape-font-specification:ArialMT;writing-mode:lr-tb;fill:#000000;fill-opacity:1;fill-rule:nonzero;stroke:none"
           transform="translate(9,101.8)">
          <tspan
             id="tspan394"
             sodipodi:role="line"
             y="0"
             x="0 8.8800001 12.573333 16.266666 19.959999 29.586666 37 44.413334 51.826664 54.786667">Y : Double</tspan>
        </text>
        <text
           id="text396"
           style="font-variant:normal;font-weight:normal;font-size:13.33333302px;font-family:Arial;-inkscape-font-specification:ArialMT;writing-mode:lr-tb;fill:#000000;fill-opacity:1;fill-rule:nonzero;stroke:none"
           transform="translate(9,117.8)">
          <tspan
             id="tspan398"
             sodipodi:role="line"
             y="0"
             x="0 8.8800001 16.293333 19.986666 23.68 26.639999 34.053333 45.16 52.573334 59.986664 63.68 73.306664 76.266663 83.68 90.346664 97.013329 100.70667 104.39999 108.09333 111.78667 119.2">SettlementClass : Int</tspan>
        </text>
      </g>
    </g>
    <g
       id="g424"
       transform="matrix(0.00246063,0,0,0.00246063,-1336.9218,-381.56234)">
      <g
         id="g426">
        <g
           id="g428">
          <path
             inkscape:connector-curvature="0"
             id="path430"
             style="fill:#000000;fill-opacity:0;fill-rule:nonzero;stroke:none"
             d="m 542874,263433 55824,0 0,11268 -55824,0 0,-11268 z" />
        </g>
      </g>
    </g>
    <g
       transform="matrix(0.93749812,0,0,0.93749812,-1336.9218,-381.56234)"
       id="g432">
      <g
         transform="translate(1424.8661,691.4252)"
         id="g434">
        <text
           id="text436"
           style="font-variant:normal;font-weight:normal;font-size:13.33333302px;font-family:Arial;-inkscape-font-specification:ArialMT;writing-mode:lr-tb;fill:#000000;fill-opacity:1;fill-rule:nonzero;stroke:none"
           transform="translate(9,21.8)">
          <tspan
             id="tspan438"
             sodipodi:role="line"
             y="0"
             x="0 4.4400001 11.853333 19.266666 22.226665 29.639999 36.306667 40.746666">radius()</tspan>
        </text>
      </g>
    </g>
    <g
       id="g478"
       transform="matrix(0.00246063,0,0,0.00246063,-1336.9218,-381.56234)">
      <g
         id="g480">
        <path
           inkscape:connector-curvature="0"
           id="path482"
           style="fill:#ffffff;fill-opacity:1;fill-rule:nonzero;stroke:none"
           d="m 684797,205818 63636,0 0,61764 -63636,0 0,-61764 z" />
      </g>
      <path
         inkscape:connector-curvature="0"
         id="path484"
         style="fill:none;stroke:#000000;stroke-width:762;stroke-linecap:butt;stroke-linejoin:round;stroke-miterlimit:14.3355875;stroke-dasharray:none;stroke-opacity:1"
         d="m 684797,205818 63636,0 0,61764 -63636,0 0,-61764 z" />
    </g>
    <g
       id="g486"
       transform="matrix(0.00246063,0,0,0.00246063,-1336.9218,-381.56234)">
      <g
         id="g488">
        <g
           id="g490">
          <path
             inkscape:connector-curvature="0"
             id="path492"
             style="fill:#000000;fill-opacity:0;fill-rule:nonzero;stroke:none"
             d="m 684987,218391 63252,-60" />
        </g>
      </g>
      <path
         inkscape:connector-curvature="0"
         id="path494"
         style="fill:none;stroke:#000000;stroke-width:762;stroke-linecap:butt;stroke-linejoin:round;stroke-miterlimit:14.3355875;stroke-dasharray:none;stroke-opacity:1"
         d="m 684987,218391 63252,-60" />
    </g>
    <g
       id="g496"
       transform="matrix(0.00246063,0,0,0.00246063,-1336.9218,-381.56234)">
      <g
         id="g498">
        <g
           id="g500">
          <path
             inkscape:connector-curvature="0"
             id="path502"
             style="fill:#000000;fill-opacity:0;fill-rule:nonzero;stroke:none"
             d="m 694512,204960 46104,0 0,11040 -46104,0 0,-11040 z" />
        </g>
      </g>
    </g>
    <g
       transform="matrix(0.93749812,0,0,0.93749812,-1336.9218,-381.56234)"
       id="g504">
      <g
         transform="translate(1822.8661,537.95276)"
         id="g506">
        <text
           id="text508"
           style="font-variant:normal;font-weight:normal;font-size:16px;font-family:Arial;-inkscape-font-specification:ArialMT;writing-mode:lr-tb;fill:#000000;fill-opacity:1;fill-rule:nonzero;stroke:none"
           transform="translate(9,24.36)">
          <tspan
             id="tspan510"
             sodipodi:role="line"
             y="0"
             x="0 4.4320002 13.328 22.224001 31.120001 39.119999 48.015999 52.448002 56 64.896004 73.792">Innovations</tspan>
        </text>
      </g>
    </g>
    <g
       id="g514"
       transform="matrix(0.00246063,0,0,0.00246063,-1336.9218,-381.56234)">
      <g
         id="g516">
        <g
           id="g518">
          <path
             inkscape:connector-curvature="0"
             id="path520"
             style="fill:#000000;fill-opacity:0;fill-rule:nonzero;stroke:none"
             d="m 684797,254988 63636,0" />
        </g>
      </g>
      <path
         inkscape:connector-curvature="0"
         id="path522"
         style="fill:none;stroke:#000000;stroke-width:762;stroke-linecap:butt;stroke-linejoin:round;stroke-miterlimit:14.3355875;stroke-dasharray:none;stroke-opacity:1"
         d="m 684797,254988 63636,0" />
    </g>
    <g
       id="g524"
       transform="matrix(0.00246063,0,0,0.00246063,-1336.9218,-381.56234)">
      <g
         id="g526">
        <g
           id="g528">
          <path
             inkscape:connector-curvature="0"
             id="path530"
             style="fill:#000000;fill-opacity:0;fill-rule:nonzero;stroke:none"
             d="m 684225,217628 55824,0 0,25860 -55824,0 0,-25860 z" />
        </g>
      </g>
    </g>
    <g
       transform="matrix(0.93749812,0,0,0.93749812,-1336.9218,-381.56234)"
       id="g532">
      <g
         transform="translate(1795.8661,571.2021)"
         id="g534">
        <text
           id="text536"
           style="font-variant:normal;font-weight:normal;font-size:13.33333302px;font-family:Arial;-inkscape-font-specification:ArialMT;writing-mode:lr-tb;fill:#000000;fill-opacity:1;fill-rule:nonzero;stroke:none"
           transform="translate(9,21.8)">
          <tspan
             id="tspan538"
             sodipodi:role="line"
             y="0"
             x="0 3.6933331 11.106667 14.799999 18.493334 22.186666 25.879999 33.293331">Id : Int</tspan>
        </text>
        <text
           id="text540"
           style="font-variant:normal;font-weight:normal;font-size:13.33333302px;font-family:Arial;-inkscape-font-specification:ArialMT;writing-mode:lr-tb;fill:#000000;fill-opacity:1;fill-rule:nonzero;stroke:none"
           transform="translate(9,37.8)">
          <tspan
             id="tspan542"
             sodipodi:role="line"
             y="0"
             x="0 7.4133329 14.826666 18.52 25.933332 29.626665 33.32 37.013332 40.706665 48.119999 51.813332">date : Int</tspan>
        </text>
        <text
           id="text544"
           style="font-variant:normal;font-weight:normal;font-size:13.33333302px;font-family:Arial;-inkscape-font-specification:ArialMT;writing-mode:lr-tb;fill:#000000;fill-opacity:1;fill-rule:nonzero;stroke:none"
           transform="translate(9,53.8)">
          <tspan
             id="tspan546"
             sodipodi:role="line"
             y="0"
             x="0 4.4400001 11.853333 19.266666 22.959999 26.653332 34.066666 37.759998 41.453331 45.146664 48.84 56.25333 59.946667">rootId : Int</tspan>
        </text>
      </g>
    </g>
    <g
       id="g550"
       transform="matrix(0.00246063,0,0,0.00246063,-1336.9218,-381.56234)">
      <g
         id="g552">
        <g
           id="g554">
          <path
             inkscape:connector-curvature="0"
             id="path556"
             style="fill:#000000;fill-opacity:0;fill-rule:nonzero;stroke:none"
             d="m 616026,213381 68196,384" />
        </g>
      </g>
      <path
         inkscape:connector-curvature="0"
         id="path558"
         style="fill:none;stroke:#000000;stroke-width:762;stroke-linecap:butt;stroke-linejoin:round;stroke-miterlimit:14.3355875;stroke-dasharray:none;stroke-opacity:1"
         d="m 616026,213381 68196,384" />
    </g>
    <g
       id="g560"
       transform="matrix(0.00246063,0,0,0.00246063,-1336.9218,-381.56234)">
      <g
         id="g562">
        <g
           id="g564">
          <path
             inkscape:connector-curvature="0"
             id="path566"
             style="fill:#000000;fill-opacity:0;fill-rule:nonzero;stroke:none"
             d="m 666809,203661 18756,0 0,9720 -18756,0 0,-9720 z" />
        </g>
      </g>
    </g>
    <g
       transform="matrix(0.93749812,0,0,0.93749812,-1336.9218,-381.56234)"
       id="g568">
      <g
         transform="translate(1750.1549,534.54333)"
         id="g570">
        <text
           id="text572"
           style="font-variant:normal;font-weight:normal;font-size:13.33333302px;font-family:Arial;-inkscape-font-specification:ArialMT;writing-mode:lr-tb;fill:#000000;fill-opacity:1;fill-rule:nonzero;stroke:none"
           transform="translate(9,21.8)">
          <tspan
             id="tspan574"
             sodipodi:role="line"
             y="0"
             x="0 7.4133329 11.106667 14.799999">0..n</tspan>
        </text>
      </g>
    </g>
    <g
       id="g578"
       transform="matrix(0.00246063,0,0,0.00246063,-1336.9218,-381.56234)">
      <g
         id="g580">
        <g
           id="g582">
          <path
             inkscape:connector-curvature="0"
             id="path584"
             style="fill:#000000;fill-opacity:0;fill-rule:nonzero;stroke:none"
             d="m 639361,200208 20580,0 0,13992 -20580,0 0,-13992 z" />
        </g>
      </g>
    </g>
    <g
       transform="matrix(0.93749812,0,0,0.93749812,-1336.9218,-381.56234)"
       id="g586">
      <g
         transform="translate(1678.1129,525.4803)"
         id="g588">
        <text
           id="text590"
           style="font-variant:normal;font-weight:normal;font-size:14.66666698px;font-family:Arial;-inkscape-font-specification:ArialMT;writing-mode:lr-tb;fill:#000000;fill-opacity:1;fill-rule:nonzero;stroke:none"
           transform="translate(9,23.08)">
          <tspan
             id="tspan592"
             sodipodi:role="line"
             y="0"
             x="0 8.1546669 18.743999">own</tspan>
        </text>
      </g>
    </g>
    <g
       id="g614"
       transform="matrix(0.00246063,0,0,0.00246063,-1336.9218,-381.56234)">
      <g
         id="g616">
        <g
           id="g618">
          <path
             inkscape:connector-curvature="0"
             id="path620"
             style="fill:#000000;fill-opacity:0;fill-rule:nonzero;stroke:none"
             d="m 715467,205761 -381,-18288 56388,-381 0,25527 -22860,381" />
        </g>
      </g>
      <path
         inkscape:connector-curvature="0"
         id="path622"
         style="fill:none;stroke:#000000;stroke-width:762;stroke-linecap:butt;stroke-linejoin:round;stroke-miterlimit:14.3355875;stroke-dasharray:none;stroke-opacity:1"
         d="M 715371.75,201189.98 715086,187473 l 56388,-381 0,25527 -22860,381" />
      <path
         inkscape:connector-curvature="0"
         id="path624"
         style="fill:#000000;fill-opacity:1;fill-rule:evenodd;stroke:#000000;stroke-width:762;stroke-linecap:butt;stroke-linejoin:miter;stroke-miterlimit:11.47371292;stroke-dasharray:none;stroke-opacity:1"
         d="m 714113.44,201216.2 1330.36,3431.07 1186.3,-3483.49 -2516.66,52.42 z" />
    </g>
    <g
       id="g626"
       transform="matrix(0.00246063,0,0,0.00246063,-1336.9218,-381.56234)">
      <g
         id="g628">
        <g
           id="g630">
          <path
             inkscape:connector-curvature="0"
             id="path632"
             style="fill:#000000;fill-opacity:0;fill-rule:nonzero;stroke:none"
             d="m 749563,202572 18756,0 0,9720 -18756,0 0,-9720 z" />
        </g>
      </g>
    </g>
    <g
       transform="matrix(0.93749812,0,0,0.93749812,-1336.9218,-381.56234)"
       id="g634">
      <g
         transform="translate(1967.3569,531.68506)"
         id="g636">
        <text
           id="text638"
           style="font-variant:normal;font-weight:normal;font-size:13.33333302px;font-family:Arial;-inkscape-font-specification:ArialMT;writing-mode:lr-tb;fill:#000000;fill-opacity:1;fill-rule:nonzero;stroke:none"
           transform="translate(9,21.8)">
          <tspan
             id="tspan640"
             sodipodi:role="line"
             y="0"
             x="0 7.4133329 11.106667 14.799999">0..1</tspan>
        </text>
      </g>
    </g>
    <g
       id="g644"
       transform="matrix(0.00246063,0,0,0.00246063,-1336.9218,-381.56234)">
      <g
         id="g646">
        <g
           id="g648">
          <path
             inkscape:connector-curvature="0"
             id="path650"
             style="fill:#000000;fill-opacity:0;fill-rule:nonzero;stroke:none"
             d="m 699378,189222 18756,0 0,9720 -18756,0 0,-9720 z" />
        </g>
      </g>
    </g>
    <g
       transform="matrix(0.93749812,0,0,0.93749812,-1336.9218,-381.56234)"
       id="g652">
      <g
         transform="translate(1835.6378,496.64566)"
         id="g654">
        <text
           id="text656"
           style="font-variant:normal;font-weight:normal;font-size:13.33333302px;font-family:Arial;-inkscape-font-specification:ArialMT;writing-mode:lr-tb;fill:#000000;fill-opacity:1;fill-rule:nonzero;stroke:none"
           transform="translate(9,21.8)">
          <tspan
             id="tspan658"
             sodipodi:role="line"
             y="0"
             x="0 7.4133329 11.106667 14.799999">0..n</tspan>
        </text>
      </g>
    </g>
    <g
       id="g662"
       transform="matrix(0.00246063,0,0,0.00246063,-1336.9218,-381.56234)">
      <g
         id="g664">
        <g
           id="g666">
          <path
             inkscape:connector-curvature="0"
             id="path668"
             style="fill:#000000;fill-opacity:0;fill-rule:nonzero;stroke:none"
             d="m 734611,176451 25344,0 0,13992 -25344,0 0,-13992 z" />
        </g>
      </g>
    </g>
    <g
       transform="matrix(0.93749812,0,0,0.93749812,-1336.9218,-381.56234)"
       id="g670">
      <g
         transform="translate(1928.1129,463.12598)"
         id="g672">
        <text
           id="text674"
           style="font-variant:normal;font-weight:normal;font-size:14.66666698px;font-family:Arial;-inkscape-font-specification:ArialMT;writing-mode:lr-tb;fill:#000000;fill-opacity:1;fill-rule:nonzero;stroke:none"
           transform="translate(9,23.08)">
          <tspan
             id="tspan676"
             sodipodi:role="line"
             y="0"
             x="0 7.3333335 10.589334 18.743999 26.898666">clone</tspan>
        </text>
      </g>
    </g>
    <g
       id="g2936"
       transform="matrix(0.00246063,0,0,0.00246063,-1336.9218,-381.56234)">
      <g
         id="g2938">
        <path
           inkscape:connector-curvature="0"
           id="path2940"
           style="fill:#000000;fill-opacity:1;fill-rule:nonzero;stroke:none"
           d="m 620479,209874 4752,3810 -4752,3810 -4752,-3810 4752,-3810 z" />
      </g>
    </g>
    <g
       id="g3096"
       transform="matrix(0.00246063,0,0,0.00246063,-1336.9218,-381.56234)">
      <g
         id="g3098">
        <path
           inkscape:connector-curvature="0"
           id="path3100"
           style="fill:#ffffff;fill-opacity:1;fill-rule:nonzero;stroke:none"
           d="m 543517,301515 72456,0 0,29940 -72456,0 0,-29940 z" />
      </g>
      <path
         inkscape:connector-curvature="0"
         id="path3102"
         style="fill:none;stroke:#000000;stroke-width:762;stroke-linecap:butt;stroke-linejoin:round;stroke-miterlimit:14.3355875;stroke-dasharray:none;stroke-opacity:1"
         d="m 543517,301515 72456,0 0,29940 -72456,0 0,-29940 z" />
    </g>
    <g
       id="g3104"
       transform="matrix(0.00246063,0,0,0.00246063,-1336.9218,-381.56234)">
      <g
         id="g3106">
        <g
           id="g3108">
          <path
             inkscape:connector-curvature="0"
             id="path3110"
             style="fill:#000000;fill-opacity:0;fill-rule:nonzero;stroke:none"
             d="m 563831,275001 18756,0 0,9720 -18756,0 0,-9720 z" />
        </g>
      </g>
    </g>
    <g
       transform="matrix(0.93749812,0,0,0.93749812,-1336.9218,-381.56234)"
       id="g3112">
      <g
         transform="translate(1479.8713,721.7874)"
         id="g3114">
        <text
           id="text3116"
           style="font-variant:normal;font-weight:normal;font-size:13.33333302px;font-family:Arial;-inkscape-font-specification:ArialMT;writing-mode:lr-tb;fill:#000000;fill-opacity:1;fill-rule:nonzero;stroke:none"
           transform="translate(9,21.8)">
          <tspan
             id="tspan3118"
             sodipodi:role="line"
             y="0"
             x="0 7.4133329 11.106667 14.799999">0..n</tspan>
        </text>
      </g>
    </g>
    <g
       id="g3122"
       transform="matrix(0.00246063,0,0,0.00246063,-1336.9218,-381.56234)">
      <g
         id="g3124">
        <g
           id="g3126">
          <path
             inkscape:connector-curvature="0"
             id="path3128"
             style="fill:#000000;fill-opacity:0;fill-rule:nonzero;stroke:none"
             d="m 585219,281586 20580,0 0,13992 -20580,0 0,-13992 z" />
        </g>
      </g>
    </g>
    <g
       transform="matrix(0.93749812,0,0,0.93749812,-1336.9218,-381.56234)"
       id="g3130">
      <g
         transform="translate(1536.0079,739.07086)"
         id="g3132">
        <text
           id="text3134"
           style="font-variant:normal;font-weight:normal;font-size:14.66666698px;font-family:Arial;-inkscape-font-specification:ArialMT;writing-mode:lr-tb;fill:#000000;fill-opacity:1;fill-rule:nonzero;stroke:none"
           transform="translate(9,23.08)">
          <tspan
             id="tspan3136"
             sodipodi:role="line"
             y="0"
             x="0 8.1546669 18.743999">own</tspan>
        </text>
      </g>
    </g>
    <g
       id="g3140"
       transform="matrix(0.00246063,0,0,0.00246063,-1336.9218,-381.56234)">
      <g
         id="g3142">
        <path
           inkscape:connector-curvature="0"
           id="path3144"
           style="fill:#000000;fill-opacity:1;fill-rule:nonzero;stroke:none"
           d="m 581243,293582 4752,3810 -4752,3810 -4752,-3810 4752,-3810 z" />
      </g>
    </g>
    <g
       id="g3146"
       transform="matrix(0.00246063,0,0,0.00246063,-1336.9218,-381.56234)">
      <g
         id="g3148">
        <g
           id="g3150">
          <path
             inkscape:connector-curvature="0"
             id="path3152"
             style="fill:#000000;fill-opacity:0;fill-rule:nonzero;stroke:none"
             d="m 580859,275990 384,17592" />
        </g>
      </g>
      <path
         inkscape:connector-curvature="0"
         id="path3154"
         style="fill:none;stroke:#000000;stroke-width:762;stroke-linecap:butt;stroke-linejoin:round;stroke-miterlimit:14.3355875;stroke-dasharray:none;stroke-opacity:1"
         d="m 580859,275990 384,17592" />
    </g>
    <g
       id="g3156"
       transform="matrix(0.00246063,0,0,0.00246063,-1336.9218,-381.56234)">
      <g
         id="g3158">
        <g
           id="g3160">
          <path
             inkscape:connector-curvature="0"
             id="path3162"
             style="fill:#000000;fill-opacity:0;fill-rule:nonzero;stroke:none"
             d="m 542379,303053.5 46104,0 0,11040 -46104,0 0,-11040 z" />
        </g>
      </g>
    </g>
    <g
       transform="matrix(0.93749812,0,0,0.93749812,-1336.9218,-381.56234)"
       id="g3164">
      <g
         transform="translate(1423.5669,795.416)"
         id="g3166">
        <text
           id="text3168"
           style="font-variant:normal;font-weight:normal;font-size:16px;font-family:Arial;-inkscape-font-specification:ArialMT;writing-mode:lr-tb;fill:#000000;fill-opacity:1;fill-rule:nonzero;stroke:none"
           transform="translate(9,24.36)">
          <tspan
             id="tspan3170"
             sodipodi:role="line"
             y="0"
             x="0 10.656 15.088 23.983999 28.416">State</tspan>
        </text>
      </g>
    </g>
    <g
       id="g3174"
       transform="matrix(0.00246063,0,0,0.00246063,-1336.9218,-381.56234)">
      <g
         id="g3176">
        <g
           id="g3178">
          <path
             inkscape:connector-curvature="0"
             id="path3180"
             style="fill:#000000;fill-opacity:0;fill-rule:nonzero;stroke:none"
             d="m 545297,317464 55824,0 0,13992 -55824,0 0,-13992 z" />
        </g>
      </g>
    </g>
    <g
       transform="matrix(0.93749812,0,0,0.93749812,-1336.9218,-381.56234)"
       id="g3182">
      <g
         transform="translate(1431.2257,833.23883)"
         id="g3184">
        <text
           id="text3186"
           style="font-variant:normal;font-weight:normal;font-size:13.33333302px;font-family:Arial;-inkscape-font-specification:ArialMT;writing-mode:lr-tb;fill:#000000;fill-opacity:1;fill-rule:nonzero;stroke:none"
           transform="translate(9,21.8)">
          <tspan
             id="tspan3188"
             sodipodi:role="line"
             y="0"
             x="0 3.6933331 11.106667 14.799999 18.493334 22.186666 25.879999 33.293331">Id : Int</tspan>
        </text>
      </g>
    </g>
    <g
       id="g3192"
       transform="matrix(0.00246063,0,0,0.00246063,-1336.9218,-381.56234)">
      <g
         id="g3194">
        <g
           id="g3196">
          <path
             inkscape:connector-curvature="0"
             id="path3198"
             style="fill:#000000;fill-opacity:0;fill-rule:nonzero;stroke:none"
             d="m 544395,316329 71544,144" />
        </g>
      </g>
      <path
         inkscape:connector-curvature="0"
         id="path3200"
         style="fill:none;stroke:#000000;stroke-width:762;stroke-linecap:butt;stroke-linejoin:round;stroke-miterlimit:14.3355875;stroke-dasharray:none;stroke-opacity:1"
         d="m 544395,316329 71544,144" />
    </g>
  </g>
</svg>
