<?xml version="1.0" encoding="UTF-8" standalone="no"?>
<!-- Created with Inkscape (http://www.inkscape.org/) -->

<svg
   xmlns:dc="http://purl.org/dc/elements/1.1/"
   xmlns:cc="http://creativecommons.org/ns#"
   xmlns:rdf="http://www.w3.org/1999/02/22-rdf-syntax-ns#"
   xmlns:svg="http://www.w3.org/2000/svg"
   xmlns="http://www.w3.org/2000/svg"
   xmlns:sodipodi="http://sodipodi.sourceforge.net/DTD/sodipodi-0.dtd"
   xmlns:inkscape="http://www.inkscape.org/namespaces/inkscape"
   width="56.006481mm"
   height="54.541798mm"
   viewBox="0 0 198.44816 193.25834"
   id="svg4531"
   version="1.1"
   inkscape:version="0.91 r13725"
   sodipodi:docname="heightmap2c.svg">
  <defs
     id="defs4533">
    <inkscape:path-effect
       effect="skeletal"
       id="path-effect7710-83-2-5"
       is_visible="true"
       pattern="m 350.05968,286.29354 c 0.41738,0.58153 0.65864,1.24458 0.74219,1.91992 l -25.51172,0 0,1 25.51368,0 c -0.082,0.67452 -0.32354,1.33076 -0.74415,1.90235 l 6.55469,-2.41016 -6.55469,-2.41211 z"
       copytype="single_stretched"
       prop_scale="1"
       scale_y_rel="false"
       spacing="0"
       normal_offset="0"
       tang_offset="0"
       prop_units="false"
       vertical_pattern="false"
       fuse_tolerance="0" />
    <inkscape:path-effect
       effect="skeletal"
       id="path-effect7710-83-2-8"
       is_visible="true"
       pattern="m 348.46868,270.7372 c 0.41738,0.58153 0.65864,1.24458 0.74219,1.91992 l -25.51172,0 0,1 25.51368,0 c -0.082,0.67452 -0.32354,1.33076 -0.74415,1.90235 l 6.55469,-2.41016 -6.55469,-2.41211 z"
       copytype="single_stretched"
       prop_scale="1"
       scale_y_rel="false"
       spacing="0"
       normal_offset="0"
       tang_offset="0"
       prop_units="false"
       vertical_pattern="false"
       fuse_tolerance="0" />
    <inkscape:path-effect
       effect="skeletal"
       id="path-effect7710-83-2"
       is_visible="true"
       pattern="m 333.2351,268.55956 c 0.41738,0.58153 0.65864,1.24458 0.74219,1.91992 l -25.51172,0 0,1 25.51368,0 c -0.082,0.67452 -0.32354,1.33076 -0.74415,1.90235 l 6.55469,-2.41016 -6.55469,-2.41211 z"
       copytype="single_stretched"
       prop_scale="1"
       scale_y_rel="false"
       spacing="0"
       normal_offset="0"
       tang_offset="0"
       prop_units="false"
       vertical_pattern="false"
       fuse_tolerance="0" />
    <inkscape:path-effect
       effect="skeletal"
       id="path-effect7710-83"
       is_visible="true"
       pattern="m 316.78343,266.47867 c 0.41738,0.58153 0.65864,1.24458 0.74219,1.91992 l -25.51172,0 0,1 25.51368,0 c -0.082,0.67452 -0.32354,1.33076 -0.74415,1.90235 l 6.55469,-2.41016 -6.55469,-2.41211 z"
       copytype="single_stretched"
       prop_scale="1"
       scale_y_rel="false"
       spacing="0"
       normal_offset="0"
       tang_offset="0"
       prop_units="false"
       vertical_pattern="false"
       fuse_tolerance="0" />
    <marker
       inkscape:stockid="Arrow2Lstart"
       orient="auto"
       refY="0"
       refX="0"
       id="Arrow2Lstart-4"
       style="overflow:visible"
       inkscape:isstock="true">
      <path
         inkscape:connector-curvature="0"
         id="path4235-9"
         style="fill:#000000;fill-opacity:1;fill-rule:evenodd;stroke:#000000;stroke-width:0.625;stroke-linejoin:round;stroke-opacity:1"
         d="M 8.7185878,4.0337352 -2.2072895,0.01601326 8.7185884,-4.0017078 c -1.7454984,2.3720609 -1.7354408,5.6174519 -6e-7,8.035443 z"
         transform="matrix(1.1,0,0,1.1,1.1,0)" />
    </marker>
    <marker
       inkscape:stockid="Arrow2Lend"
       orient="auto"
       refY="0"
       refX="0"
       id="Arrow2Lend-4"
       style="overflow:visible"
       inkscape:isstock="true">
      <path
         inkscape:connector-curvature="0"
         id="path4238-5"
         style="fill:#000000;fill-opacity:1;fill-rule:evenodd;stroke:#000000;stroke-width:0.625;stroke-linejoin:round;stroke-opacity:1"
         d="M 8.7185878,4.0337352 -2.2072895,0.01601326 8.7185884,-4.0017078 c -1.7454984,2.3720609 -1.7354408,5.6174519 -6e-7,8.035443 z"
         transform="matrix(-1.1,0,0,-1.1,-1.1,0)" />
    </marker>
  </defs>
  <sodipodi:namedview
     id="base"
     pagecolor="#ffffff"
     bordercolor="#666666"
     borderopacity="1.0"
     inkscape:pageopacity="0.0"
     inkscape:pageshadow="2"
     inkscape:zoom="1.979899"
     inkscape:cx="76.448841"
     inkscape:cy="139.13266"
     inkscape:document-units="px"
     inkscape:current-layer="layer1"
     showgrid="false"
     fit-margin-left="1"
     fit-margin-bottom="1"
     fit-margin-top="1"
     fit-margin-right="1"
     inkscape:window-width="1883"
     inkscape:window-height="1176"
     inkscape:window-x="37"
     inkscape:window-y="24"
     inkscape:window-maximized="1" />
  <metadata
     id="metadata4536">
    <rdf:RDF>
      <cc:Work
         rdf:about="">
        <dc:format>image/svg+xml</dc:format>
        <dc:type
           rdf:resource="http://purl.org/dc/dcmitype/StillImage" />
        <dc:title></dc:title>
      </cc:Work>
    </rdf:RDF>
  </metadata>
  <g
     inkscape:label="Calque 1"
     inkscape:groupmode="layer"
     id="layer1"
     transform="translate(-262.25586,-844.13116)">
    <circle
       style="opacity:0.80286734;fill:#ef2929;fill-opacity:1;fill-rule:nonzero;stroke:none;stroke-width:1;stroke-linecap:round;stroke-linejoin:round;stroke-miterlimit:4;stroke-dasharray:1, 1;stroke-dashoffset:0;stroke-opacity:1"
       id="path3354-7"
       r="2.6637053"
       cy="955.34808"
       cx="372.92041"
       inkscape:export-filename="/home/srey/TRAVAUX/THESE/REPOSITORY_GIT/simprocess-these/FigurePartie2/heightmap2_c.png"
       inkscape:export-xdpi="150"
       inkscape:export-ydpi="150" />
    <path
       style="fill:none;fill-rule:evenodd;stroke:#000000;stroke-width:1px;stroke-linecap:butt;stroke-linejoin:miter;stroke-opacity:1"
       d="m 292.1585,981.05038 c 0,0 0.4456,-32.91635 6.7438,-23.8627 8.30008,11.93135 4.66879,-18.67516 8.81883,-11.4126 4.15003,7.26257 4.15004,21.26893 15.04387,12.45011 6.88987,-5.57752 103.23212,13.48761 106.8634,-4.66879 3.63128,-18.1564 7.26257,-22.82519 10.89385,-15.56263 3.63128,7.26256 0,27.49398 7.78131,22.30644 l 7.78132,-5.18755"
       id="path8320"
       inkscape:connector-curvature="0"
       sodipodi:nodetypes="cssssssc"
       inkscape:export-filename="/home/srey/TRAVAUX/THESE/REPOSITORY_GIT/simprocess-these/FigurePartie2/heightmap2_c.png"
       inkscape:export-xdpi="150"
       inkscape:export-ydpi="150" />
    <path
       style="fill:none;fill-rule:evenodd;stroke:#000000;stroke-width:1px;stroke-linecap:butt;stroke-linejoin:miter;stroke-opacity:1;marker-start:url(#Arrow2Lstart-4);marker-end:url(#Arrow2Lend-4)"
       d="m 285.48901,849.34617 0,170.00003 170,0"
       id="path3340-7"
       inkscape:connector-curvature="0"
       sodipodi:nodetypes="ccc"
       inkscape:export-filename="/home/srey/TRAVAUX/THESE/REPOSITORY_GIT/simprocess-these/FigurePartie2/heightmap2_c.png"
       inkscape:export-xdpi="150"
       inkscape:export-ydpi="150" />
    <text
       xml:space="preserve"
       style="font-style:normal;font-weight:normal;font-size:40px;line-height:125%;font-family:Sans;letter-spacing:0px;word-spacing:0px;fill:#000000;fill-opacity:1;stroke:none;stroke-width:1px;stroke-linecap:butt;stroke-linejoin:miter;stroke-opacity:1"
       x="-888.14215"
       y="277.19565"
       id="text8322-8-4"
       sodipodi:linespacing="125%"
       transform="matrix(0,-1,1,0,0,0)"
       inkscape:export-filename="/home/srey/TRAVAUX/THESE/REPOSITORY_GIT/simprocess-these/FigurePartie2/heightmap2_c.png"
       inkscape:export-xdpi="150"
       inkscape:export-ydpi="150"><tspan
         sodipodi:role="line"
         id="tspan8324-5-7"
         x="-888.14215"
         y="277.19565"
         style="font-size:15px">f(x)</tspan></text>
    <circle
       style="opacity:0.80286734;fill:#ef2929;fill-opacity:1;fill-rule:nonzero;stroke:none;stroke-width:1;stroke-linecap:round;stroke-linejoin:round;stroke-miterlimit:4;stroke-dasharray:1, 1;stroke-dashoffset:0;stroke-opacity:1"
       id="path3354-7-8"
       r="2.6637053"
       cy="952.97247"
       cx="357.37878"
       inkscape:export-filename="/home/srey/TRAVAUX/THESE/REPOSITORY_GIT/simprocess-these/FigurePartie2/heightmap2_c.png"
       inkscape:export-xdpi="150"
       inkscape:export-ydpi="150" />
    <circle
       style="opacity:0.80286734;fill:#ef2929;fill-opacity:1;fill-rule:nonzero;stroke:none;stroke-width:1;stroke-linecap:round;stroke-linejoin:round;stroke-miterlimit:4;stroke-dasharray:1, 1;stroke-dashoffset:0;stroke-opacity:1"
       id="path3354-7-1"
       r="2.6637053"
       cy="956.6405"
       cx="383.81552"
       inkscape:export-filename="/home/srey/TRAVAUX/THESE/REPOSITORY_GIT/simprocess-these/FigurePartie2/heightmap2_c.png"
       inkscape:export-xdpi="150"
       inkscape:export-ydpi="150" />
    <circle
       style="opacity:0.80286734;fill:#ef2929;fill-opacity:1;fill-rule:nonzero;stroke:none;stroke-width:1;stroke-linecap:round;stroke-linejoin:round;stroke-miterlimit:4;stroke-dasharray:1, 1;stroke-dashoffset:0;stroke-opacity:1"
       id="path3354-7-1-4"
       r="2.6637053"
       cy="958.02893"
       cx="401.37433"
       inkscape:export-filename="/home/srey/TRAVAUX/THESE/REPOSITORY_GIT/simprocess-these/FigurePartie2/heightmap2_c.png"
       inkscape:export-xdpi="150"
       inkscape:export-ydpi="150" />
    <circle
       style="opacity:0.80286734;fill:#ef2929;fill-opacity:1;fill-rule:nonzero;stroke:none;stroke-width:1;stroke-linecap:round;stroke-linejoin:round;stroke-miterlimit:4;stroke-dasharray:1, 1;stroke-dashoffset:0;stroke-opacity:1"
       id="path3354-7-1-2"
       r="2.6637053"
       cy="953.08563"
       cx="344.42206"
       inkscape:export-filename="/home/srey/TRAVAUX/THESE/REPOSITORY_GIT/simprocess-these/FigurePartie2/heightmap2_c.png"
       inkscape:export-xdpi="150"
       inkscape:export-ydpi="150" />
    <path
       style="fill:#000000;fill-opacity:1;fill-rule:evenodd;stroke:none;stroke-width:0.5;stroke-linecap:butt;stroke-linejoin:miter;stroke-miterlimit:4;stroke-dasharray:none;stroke-opacity:1"
       d="m 359.87775,942.02008 c -0.49913,0.54366 -1.16081,0.83507 -1.81909,0.96622 -0.0507,-0.6091 -0.14141,-1.22472 -0.31557,-1.83562 -0.32166,-1.10778 -1.02778,-2.10189 -2.01849,-2.73251 -1.48548,-0.91241 -3.2221,-1.14395 -4.84447,-1.21157 l 0,0 c -1.53558,-0.0761 -3.0845,0.4845 -4.18402,1.58151 -1.01885,1.03975 -1.64927,2.35945 -2.05974,3.68534 l 0,0 c -0.37584,1.1939 -0.59944,2.42438 -0.7212,3.65476 l 0,0 c -0.0401,0.40266 -0.0693,0.80745 -0.0851,1.21383 l 0,0 c -0.004,0.11397 -0.008,0.22847 -0.009,0.34347 -4.6e-4,0.0308 -7.9e-4,0.0617 -9.2e-4,0.0926 -4e-5,0.0112 -8e-5,0.0227 -10e-6,0.0339 l 0.99989,0.0145 c -8e-5,-0.0105 -5e-5,-0.0213 -2e-5,-0.0318 9e-5,-0.029 3.9e-4,-0.058 8.1e-4,-0.0871 0.002,-0.10848 0.005,-0.21742 0.009,-0.32682 l 0,0 c 0.0149,-0.38414 0.0427,-0.76881 0.081,-1.15345 l 0,0 c 0.11806,-1.177 0.32785,-2.34023 0.67978,-3.453 l 0,0 c 0.3972,-1.23325 0.94637,-2.41849 1.816,-3.28194 0.87005,-0.88877 2.16561,-1.35124 3.42394,-1.28704 l 0,0 c 1.56961,0.0932 3.14567,0.2741 4.36281,1.05968 0.76791,0.47349 1.33125,1.27847 1.59016,2.16514 0.15536,0.52065 0.23347,1.07061 0.2779,1.63861 -0.69626,-0.0178 -1.33076,-0.16824 -1.94767,-0.37759 0.36894,0.51201 0.68935,1.20437 1.02189,1.94687 0.5296,1.21567 1.06774,2.53311 1.7867,3.65942 0.26649,-1.30953 0.75776,-2.482 1.21918,-3.74268 0.29138,-0.7524 0.57574,-1.56913 0.73681,-2.53471 z"
       id="path3411-1"
       inkscape:connector-curvature="0"
       sodipodi:nodetypes="csc"
       inkscape:path-effect="#path-effect7710-83"
       inkscape:original-d="m 344.31079,947.81924 c 0,0 -0.0745,-10.45446 6.5447,-10.12204 8.61418,0.43261 6.13931,5.60939 7.06723,10.60009"
       inkscape:export-filename="/home/srey/TRAVAUX/THESE/REPOSITORY_GIT/simprocess-these/FigurePartie2/heightmap2_c.png"
       inkscape:export-xdpi="150"
       inkscape:export-ydpi="150" />
    <path
       style="fill:#000000;fill-opacity:1;fill-rule:evenodd;stroke:none;stroke-width:0.5;stroke-linecap:butt;stroke-linejoin:miter;stroke-miterlimit:4;stroke-dasharray:none;stroke-opacity:1"
       d="m 376.22914,946.67176 c -0.57281,0.41511 -1.2539,0.59044 -1.92316,0.62323 0.0307,-0.5858 0.0233,-1.17948 -0.0517,-1.781 -0.12082,-0.92579 -0.5636,-1.81274 -1.29371,-2.43911 -1.06427,-0.87311 -2.37934,-1.24442 -3.61125,-1.48011 l 0,0 c -1.49203,-0.30375 -3.09219,-0.0716 -4.41386,0.72515 -1.17446,0.72331 -2.08145,1.77423 -2.77469,2.90433 l 0,0 c -0.60374,0.97605 -1.07509,2.02239 -1.44487,3.09421 l 0,0 c -0.11976,0.34623 -0.2295,0.69723 -0.32647,1.05302 l 0,0 c -0.0271,0.0993 -0.0532,0.1995 -0.0779,0.30058 -0.007,0.0271 -0.0131,0.0543 -0.0194,0.0815 -0.002,0.01 -0.005,0.0202 -0.007,0.0301 l 0.97157,0.23676 c 6e-4,-0.003 0.006,-0.0251 0.006,-0.0279 0.006,-0.0252 0.0118,-0.0504 0.018,-0.0756 0.0229,-0.094 0.0475,-0.1882 0.0732,-0.28265 l 0,0 c 0.0904,-0.33191 0.19355,-0.66161 0.30674,-0.98911 0.35163,-1.01451 0.79132,-1.99423 1.34987,-2.89438 l 0,0 0,0 c 0.64821,-1.03498 1.4452,-1.97673 2.44466,-2.57682 1.07529,-0.66307 2.43585,-0.85327 3.69508,-0.59921 1.18253,0.25436 2.34919,0.55401 3.16599,1.2651 0.52444,0.42922 0.85144,1.10497 0.94636,1.80551 0.0743,0.52259 0.0808,1.05473 0.0493,1.59638 -0.67742,-0.10206 -1.29581,-0.31294 -1.87092,-0.57369 0.79042,1.3317 1.11387,3.50794 1.87147,5.30101 0.84929,-1.75179 2.12264,-3.10865 2.91638,-5.29738 z"
       id="path3411-1-3"
       inkscape:connector-curvature="0"
       sodipodi:nodetypes="csc"
       inkscape:path-effect="#path-effect7710-83-2"
       inkscape:original-d="m 360.76246,949.90013 c 0,0 1.99387,-9.14095 8.48924,-7.82394 6.49286,1.31649 4.19477,4.7255 4.06203,9.89298"
       inkscape:export-filename="/home/srey/TRAVAUX/THESE/REPOSITORY_GIT/simprocess-these/FigurePartie2/heightmap2_c.png"
       inkscape:export-xdpi="150"
       inkscape:export-ydpi="150" />
    <path
       style="fill:#000000;fill-opacity:1;fill-rule:evenodd;stroke:none;stroke-width:0.5;stroke-linecap:butt;stroke-linejoin:miter;stroke-miterlimit:4;stroke-dasharray:none;stroke-opacity:1"
       d="m 400.69934,945.8611 c -0.10721,0.78981 -0.46494,1.42515 -0.94902,1.90669 -0.32457,-0.43782 -0.66938,-0.85953 -1.02974,-1.26489 -2.29933,-2.62403 -5.50221,-4.78921 -9.10276,-4.86157 l 0,0 0,0 c -1.84948,-0.0102 -3.59548,0.68039 -5.11587,1.58411 l 0,0 c -1.64369,0.96653 -3.11185,2.18254 -4.46383,3.48574 l 0,0 c -1.13721,1.09443 -2.20067,2.26138 -3.19847,3.47852 l 0,0 c -0.30998,0.37802 -0.61429,0.7619 -0.91059,1.15303 l 0,0 0,0 c -0.0819,0.10811 -0.16352,0.21723 -0.24442,0.32767 -0.0213,0.0291 -0.0426,0.0584 -0.0639,0.0879 -0.008,0.0106 -0.0154,0.0214 -0.023,0.0321 l 0.81105,0.58499 c 0.002,-0.003 0.0195,-0.0271 0.0216,-0.0302 0.0201,-0.0279 0.0404,-0.0558 0.061,-0.0838 0.077,-0.10508 0.15539,-0.20992 0.23483,-0.3148 l 0,-10e-6 0,0 c 0.2874,-0.37943 0.58377,-0.75323 0.88676,-1.12279 0.97594,-1.19004 2.01276,-2.32814 3.11855,-3.39199 1.31874,-1.26656 2.72447,-2.43527 4.27653,-3.34383 1.44221,-0.83421 3.01544,-1.47897 4.59755,-1.44667 l 0,0 c 3.19517,0.01 6.15278,2.06292 8.36696,4.52528 0.34207,0.38642 0.6687,0.78627 0.97518,1.19931 -0.59426,0.32779 -1.27867,0.51623 -1.98155,0.55509 1.06669,0.62619 2.08386,1.37351 2.97213,2.31091 0.74651,0.86007 1.53388,1.70373 1.68954,2.91479 0.57984,-1.0747 0.56323,-2.5722 0.3578,-3.83376 -0.20538,-1.49996 -0.65806,-3.00953 -1.28629,-4.45178 z"
       id="path3411-1-3-7"
       inkscape:connector-curvature="0"
       sodipodi:nodetypes="csc"
       inkscape:path-effect="#path-effect7710-83-2-8"
       inkscape:original-d="m 375.99604,952.07777 c 0,0 7.12039,-10.02483 13.61576,-9.94526 6.62449,0.0811 12.68006,8.43781 12.01699,12.01431"
       inkscape:export-filename="/home/srey/TRAVAUX/THESE/REPOSITORY_GIT/simprocess-these/FigurePartie2/heightmap2_c.png"
       inkscape:export-xdpi="150"
       inkscape:export-ydpi="150" />
    <path
       style="fill:#000000;fill-opacity:1;fill-rule:evenodd;stroke:none;stroke-width:0.5;stroke-linecap:butt;stroke-linejoin:miter;stroke-miterlimit:4;stroke-dasharray:none;stroke-opacity:1"
       d="m 387.84053,950.7396 c -0.59389,-0.16447 -1.22046,-0.4021 -1.81451,-0.73291 0.52412,-0.78865 1.13741,-1.48351 1.89069,-2.01241 0.6608,-0.46971 1.45429,-0.76379 2.22743,-0.72461 0.9458,0.0238 1.87595,0.49813 2.71447,1.09387 l 0,0 c 1.51081,1.08721 2.64639,2.67583 3.66316,4.32865 l 0,0 c 0.38713,0.63467 0.74844,1.28535 1.08361,1.94941 l 0,0 c 0.0999,0.19805 0.19719,0.39651 0.29067,0.59582 l 10e-6,0 c 0.0258,0.055 0.0512,0.10979 0.0761,0.16457 0.009,0.0199 0.0185,0.0407 0.0273,0.0607 l 0.91054,-0.41342 c -0.009,-0.0212 -0.0193,-0.0432 -0.0289,-0.0643 -0.0263,-0.0579 -0.0529,-0.11525 -0.0796,-0.17226 l 0,0 c -0.0983,-0.20954 -0.19976,-0.41663 -0.30327,-0.6217 l 0,0 c -0.34701,-0.68759 -0.72134,-1.36166 -1.12262,-2.01957 -1.0313,-1.70545 -2.25553,-3.39017 -3.9291,-4.61694 l 0,0 c -0.92008,-0.68244 -2.03281,-1.22018 -3.26222,-1.28405 -1.03919,-0.0332 -2.04062,0.32338 -2.85127,0.91191 -0.85958,0.63129 -1.55478,1.4116 -2.13647,2.26867 -0.52334,-0.42423 -0.96473,-0.9483 -1.19499,-1.57781 -0.52695,1.98592 -0.39696,3.83237 -0.228,5.56611 1.32247,-1.1342 2.75612,-2.22513 4.06708,-2.69975 z"
       id="path3411-1-3-74"
       inkscape:connector-curvature="0"
       sodipodi:nodetypes="csc"
       inkscape:path-effect="#path-effect7710-83-2-5"
       inkscape:original-d="m 398.44669,955.25975 c 0,0 -2.2256,-5.06039 -5.29935,-7.29361 -4.29303,-3.11908 -7.29571,0.30608 -9.37299,5.47357"
       inkscape:export-filename="/home/srey/TRAVAUX/THESE/REPOSITORY_GIT/simprocess-these/FigurePartie2/heightmap2_c.png"
       inkscape:export-xdpi="150"
       inkscape:export-ydpi="150" />
    <text
       xml:space="preserve"
       style="font-style:normal;font-weight:normal;font-size:40px;line-height:125%;font-family:Sans;letter-spacing:0px;word-spacing:0px;fill:#888a85;fill-opacity:1;stroke:none;stroke-width:1px;stroke-linecap:butt;stroke-linejoin:miter;stroke-opacity:1"
       x="365.82547"
       y="929.62665"
       id="text9416"
       sodipodi:linespacing="125%"
       inkscape:export-filename="/home/srey/TRAVAUX/THESE/REPOSITORY_GIT/simprocess-these/FigurePartie2/heightmap2_c.png"
       inkscape:export-xdpi="150"
       inkscape:export-ydpi="150"><tspan
         sodipodi:role="line"
         id="tspan9418"
         x="365.82547"
         y="929.62665">?</tspan></text>
    <text
       xml:space="preserve"
       style="font-style:normal;font-weight:normal;font-size:40px;line-height:125%;font-family:Sans;letter-spacing:0px;word-spacing:0px;fill:#000000;fill-opacity:1;stroke:none;stroke-width:1px;stroke-linecap:butt;stroke-linejoin:miter;stroke-opacity:1"
       x="430.15915"
       y="1033.8462"
       id="text8322-86-8"
       sodipodi:linespacing="125%"
       inkscape:export-filename="/home/srey/TRAVAUX/THESE/REPOSITORY_GIT/simprocess-these/FigurePartie2/heightmap2e.png"
       inkscape:export-xdpi="150"
       inkscape:export-ydpi="150"><tspan
         sodipodi:role="line"
         id="tspan8324-9-4"
         x="430.15915"
         y="1033.8462"
         style="font-size:15px">x</tspan></text>
  </g>
</svg>
