<?xml version="1.0" encoding="UTF-8" standalone="no"?>
<!-- Created with Inkscape (http://www.inkscape.org/) -->

<svg
   xmlns:dc="http://purl.org/dc/elements/1.1/"
   xmlns:cc="http://creativecommons.org/ns#"
   xmlns:rdf="http://www.w3.org/1999/02/22-rdf-syntax-ns#"
   xmlns:svg="http://www.w3.org/2000/svg"
   xmlns="http://www.w3.org/2000/svg"
   xmlns:sodipodi="http://sodipodi.sourceforge.net/DTD/sodipodi-0.dtd"
   xmlns:inkscape="http://www.inkscape.org/namespaces/inkscape"
   width="163.31633mm"
   height="132.3125mm"
   viewBox="0 0 578.67991 468.82382"
   id="svg16492"
   version="1.1"
   inkscape:version="0.91 r13725"
   sodipodi:docname="slocal_create.svg">
  <defs
     id="defs16494" />
  <sodipodi:namedview
     id="base"
     pagecolor="#ffffff"
     bordercolor="#666666"
     borderopacity="1.0"
     inkscape:pageopacity="0.0"
     inkscape:pageshadow="2"
     inkscape:zoom="0.7"
     inkscape:cx="-20.559398"
     inkscape:cy="117.48402"
     inkscape:document-units="px"
     inkscape:current-layer="layer1"
     showgrid="false"
     inkscape:window-width="1883"
     inkscape:window-height="1176"
     inkscape:window-x="37"
     inkscape:window-y="24"
     inkscape:window-maximized="1"
     fit-margin-left="1"
     fit-margin-right="1"
     fit-margin-bottom="1"
     fit-margin-top="1" />
  <metadata
     id="metadata16497">
    <rdf:RDF>
      <cc:Work
         rdf:about="">
        <dc:format>image/svg+xml</dc:format>
        <dc:type
           rdf:resource="http://purl.org/dc/dcmitype/StillImage" />
        <dc:title></dc:title>
      </cc:Work>
    </rdf:RDF>
  </metadata>
  <g
     inkscape:label="Calque 1"
     inkscape:groupmode="layer"
     id="layer1"
     transform="translate(-40.659995,-35.093097)">
    <g
       id="g2534"
       transform="matrix(0.00246063,0,0,0.00246063,-1277.2805,-1497.3602)">
      <g
         id="g2536">
        <path
           inkscape:connector-curvature="0"
           id="path2538"
           style="fill:#ffffff;fill-opacity:1;fill-rule:nonzero;stroke:none"
           d="m 537432,647116.44 0,0 c 0,-12429.94 10076.5,-22506.44 22506.44,-22506.44 l 90023.12,0 0,0 c 5969.04,0 11693.69,2371.2 15914.44,6592 4220.8,4220.75 6592,9945.4 6592,15914.44 l 0,141875.12 c 0,12429.94 -10076.5,22506.44 -22506.44,22506.44 l -90023.12,0 C 547508.5,811498 537432,801421.5 537432,788991.56 l 0,-141875.12 z" />
      </g>
      <path
         inkscape:connector-curvature="0"
         id="path2540"
         style="fill:none;stroke:#000000;stroke-width:762;stroke-linecap:butt;stroke-linejoin:round;stroke-miterlimit:14.3355875;stroke-dasharray:none;stroke-opacity:1"
         d="m 537432,647116.44 0,0 c 0,-12429.94 10076.5,-22506.44 22506.44,-22506.44 l 90023.12,0 0,0 c 5969.04,0 11693.69,2371.2 15914.44,6592 4220.8,4220.75 6592,9945.4 6592,15914.44 l 0,141875.12 c 0,12429.94 -10076.5,22506.44 -22506.44,22506.44 l -90023.12,0 C 547508.5,811498 537432,801421.5 537432,788991.56 l 0,-141875.12 z" />
    </g>
    <g
       id="g2542"
       transform="matrix(0.00246063,0,0,0.00246063,-1277.2805,-1497.3602)">
      <g
         id="g2544">
        <path
           inkscape:connector-curvature="0"
           id="path2546"
           style="fill:#000000;fill-opacity:1;fill-rule:nonzero;stroke:none"
           d="m 601213.06,651630.5 0,0 c 0,-2684.1 2175.88,-4860 4860,-4860 l 0,0 c 1288.94,0 2525.14,512.06 3436.54,1423.44 911.4,911.46 1423.46,2147.62 1423.46,3436.56 l 0,0 c 0,2684.1 -2175.86,4860 -4860,4860 l 0,0 c -2684.12,0 -4860,-2175.9 -4860,-4860 z" />
      </g>
    </g>
    <g
       id="g2548"
       transform="matrix(0.00246063,0,0,0.00246063,-1277.2805,-1497.3602)">
      <g
         id="g2550">
        <g
           id="g2552">
          <path
             inkscape:connector-curvature="0"
             id="path2554"
             style="fill:#000000;fill-opacity:0;fill-rule:nonzero;stroke:none"
             d="m 605996.06,656493.5 0,17676" />
        </g>
      </g>
      <path
         inkscape:connector-curvature="0"
         id="path2556"
         style="fill:none;stroke:#000000;stroke-width:762;stroke-linecap:butt;stroke-linejoin:round;stroke-miterlimit:14.3355875;stroke-dasharray:none;stroke-opacity:1"
         d="m 605996.06,656493.5 0,13104" />
      <path
         inkscape:connector-curvature="0"
         id="path2558"
         style="fill:#000000;fill-opacity:1;fill-rule:evenodd;stroke:#000000;stroke-width:762;stroke-linecap:butt;stroke-linejoin:miter;stroke-miterlimit:11.47371292;stroke-dasharray:none;stroke-opacity:1"
         d="m 604737.44,669597.5 1258.62,3458 1258.64,-3458 -2517.26,0 z" />
    </g>
    <g
       id="g2560"
       transform="matrix(0.00246063,0,0,0.00246063,-1277.2805,-1497.3602)">
      <g
         id="g2562">
        <g
           id="g2564">
          <path
             inkscape:connector-curvature="0"
             id="path2566"
             style="fill:#000000;fill-opacity:0;fill-rule:nonzero;stroke:none"
             d="m 550101,628784 134124,0 0,18288 -134124,0 0,-18288 z" />
        </g>
      </g>
    </g>
    <g
       transform="matrix(0.93749812,0,0,0.93749812,-1277.2805,-1497.3602)"
       id="g2568">
      <g
         transform="translate(1443.8346,1650.3517)"
         id="g2570">
        <text
           id="text2572"
           style="font-variant:normal;font-weight:bold;font-size:18.66666603px;font-family:Arial;-inkscape-font-specification:Arial-BoldMT;writing-mode:lr-tb;fill:#000000;fill-opacity:1;fill-rule:nonzero;stroke:none"
           transform="translate(9,26.919998)">
          <tspan
             id="tspan2574"
             sodipodi:role="line"
             y="0"
             x="0 13.477333 20.738667 31.117332 41.495998 47.711998 58.090664 63.26133 68.431999 79.818665 91.20533 102.592 112.97066 123.34933 129.56532 134.73599 146.12267 157.50932">Create innovations</tspan>
        </text>
      </g>
    </g>
    <g
       id="g2578"
       transform="matrix(0.00246063,0,0,0.00246063,-1277.2805,-1497.3602)">
      <g
         id="g2580">
        <path
           inkscape:connector-curvature="0"
           id="path2582"
           style="fill:#ffffff;fill-opacity:1;fill-rule:nonzero;stroke:none"
           d="m 566227,677569.94 0,0 c 0,-1877.74 1522.25,-3400 3400,-3400 l 72892,0 c 901.75,0 1766.56,358.16 2404.2,995.81 637.6,637.65 995.8,1502.45 995.8,2404.19 l 0,13600 c 0,1877.76 -1522.25,3400 -3400,3400 l -72892,0 c -1877.75,0 -3400,-1522.24 -3400,-3400 l 0,-13600 z" />
      </g>
      <path
         inkscape:connector-curvature="0"
         id="path2584"
         style="fill:none;stroke:#000000;stroke-width:762;stroke-linecap:butt;stroke-linejoin:round;stroke-miterlimit:14.3355875;stroke-dasharray:none;stroke-opacity:1"
         d="m 566227,677569.94 0,0 c 0,-1877.74 1522.25,-3400 3400,-3400 l 72892,0 c 901.75,0 1766.56,358.16 2404.2,995.81 637.6,637.65 995.8,1502.45 995.8,2404.19 l 0,13600 c 0,1877.76 -1522.25,3400 -3400,3400 l -72892,0 c -1877.75,0 -3400,-1522.24 -3400,-3400 l 0,-13600 z" />
    </g>
    <g
       transform="matrix(0.93749812,0,0,0.93749812,-1277.2805,-1497.3602)"
       id="g2586">
      <g
         transform="translate(1488.7738,1772.0886)"
         id="g2588">
        <text
           id="text2590"
           style="font-variant:normal;font-weight:normal;font-size:18.66666603px;font-family:Arial;-inkscape-font-specification:ArialMT;writing-mode:lr-tb;fill:#000000;fill-opacity:1;fill-rule:nonzero;stroke:none"
           transform="translate(9,31.077934)">
          <tspan
             id="tspan2592"
             sodipodi:role="line"
             y="0"
             x="0 4.1440001 14.522666 24.901333 35.279999 44.613331 54.991997 60.162666 70.541328 75.711998">innovate ?</tspan>
        </text>
      </g>
    </g>
    <g
       id="g2596"
       transform="matrix(0.00246063,0,0,0.00246063,-1277.2805,-1497.3602)">
      <g
         id="g2598">
        <g
           id="g2600">
          <path
             inkscape:connector-curvature="0"
             id="path2602"
             style="fill:#000000;fill-opacity:0;fill-rule:nonzero;stroke:none"
             d="m 603490.06,694570 0,17676" />
        </g>
      </g>
      <path
         inkscape:connector-curvature="0"
         id="path2604"
         style="fill:none;stroke:#000000;stroke-width:762;stroke-linecap:butt;stroke-linejoin:round;stroke-miterlimit:14.3355875;stroke-dasharray:none;stroke-opacity:1"
         d="m 603490.06,694570 0,13104" />
      <path
         inkscape:connector-curvature="0"
         id="path2606"
         style="fill:#000000;fill-opacity:1;fill-rule:evenodd;stroke:#000000;stroke-width:762;stroke-linecap:butt;stroke-linejoin:miter;stroke-miterlimit:11.47371292;stroke-dasharray:none;stroke-opacity:1"
         d="m 602231.44,707674 1258.62,3458 1258.64,-3458 -2517.26,0 z" />
    </g>
    <g
       id="g2608"
       transform="matrix(0.00246063,0,0,0.00246063,-1277.2805,-1497.3602)">
      <g
         id="g2610">
        <g
           id="g2612">
          <path
             inkscape:connector-curvature="0"
             id="path2614"
             style="fill:#000000;fill-opacity:0;fill-rule:nonzero;stroke:none"
             d="m 607432,700296 25344,0 0,13992 -25344,0 0,-13992 z" />
        </g>
      </g>
    </g>
    <g
       transform="matrix(0.93749812,0,0,0.93749812,-1277.2805,-1497.3602)"
       id="g2616">
      <g
         transform="translate(1594.3097,1838.0472)"
         id="g2618">
        <text
           id="text2620"
           style="font-variant:normal;font-weight:normal;font-size:18.66666603px;font-family:Arial;-inkscape-font-specification:ArialMT;writing-mode:lr-tb;fill:#000000;fill-opacity:1;fill-rule:nonzero;stroke:none"
           transform="translate(9,26.919998)">
          <tspan
             id="tspan2622"
             sodipodi:role="line"
             y="0"
             x="0 5.1706667 15.549333 25.927999">[no]</tspan>
        </text>
      </g>
    </g>
    <g
       id="g2626"
       transform="matrix(0.00246063,0,0,0.00246063,-1277.2805,-1497.3602)">
      <g
         id="g2628">
        <g
           id="g2630">
          <path
             inkscape:connector-curvature="0"
             id="path2632"
             style="fill:#000000;fill-opacity:0;fill-rule:nonzero;stroke:none"
             d="m 611266.06,719410 17676,0" />
        </g>
      </g>
      <path
         inkscape:connector-curvature="0"
         id="path2634"
         style="fill:none;stroke:#000000;stroke-width:762;stroke-linecap:butt;stroke-linejoin:round;stroke-miterlimit:14.3355875;stroke-dasharray:none;stroke-opacity:1"
         d="m 611266.06,719410 13104,0" />
      <path
         inkscape:connector-curvature="0"
         id="path2636"
         style="fill:#000000;fill-opacity:1;fill-rule:evenodd;stroke:#000000;stroke-width:762;stroke-linecap:butt;stroke-linejoin:miter;stroke-miterlimit:11.47371292;stroke-dasharray:none;stroke-opacity:1"
         d="m 624370.06,720668.6 3458,-1258.6 -3458,-1258.6 0,2517.2 z" />
    </g>
    <g
       id="g2638"
       transform="matrix(0.00246063,0,0,0.00246063,-1277.2805,-1497.3602)">
      <g
         id="g2640">
        <g
           id="g2642">
          <path
             inkscape:connector-curvature="0"
             id="path2644"
             style="fill:#000000;fill-opacity:0;fill-rule:nonzero;stroke:none"
             d="m 596494,719622 6996,-6996 6996,6996 -6996,6996 -6996,-6996 z" />
        </g>
      </g>
      <path
         inkscape:connector-curvature="0"
         id="path2646"
         style="fill:none;stroke:#000000;stroke-width:762;stroke-linecap:butt;stroke-linejoin:round;stroke-miterlimit:14.3355875;stroke-dasharray:none;stroke-opacity:1"
         d="m 596494,719622 6996,-6996 6996,6996 -6996,6996 -6996,-6996 z" />
    </g>
    <g
       id="g2648"
       transform="matrix(0.00246063,0,0,0.00246063,-1277.2805,-1497.3602)">
      <g
         id="g2650">
        <g
           id="g2652">
          <path
             inkscape:connector-curvature="0"
             id="path2654"
             style="fill:#000000;fill-opacity:0;fill-rule:nonzero;stroke:none"
             d="m 603490.06,726618 528,22056" />
        </g>
      </g>
      <path
         inkscape:connector-curvature="0"
         id="path2656"
         style="fill:none;stroke:#000000;stroke-width:762;stroke-linecap:butt;stroke-linejoin:round;stroke-miterlimit:14.3355875;stroke-dasharray:none;stroke-opacity:1"
         d="m 603490.06,726618 418.54,17485.3" />
      <path
         inkscape:connector-curvature="0"
         id="path2658"
         style="fill:#000000;fill-opacity:1;fill-rule:evenodd;stroke:#000000;stroke-width:762;stroke-linecap:butt;stroke-linejoin:miter;stroke-miterlimit:11.47371292;stroke-dasharray:none;stroke-opacity:1"
         d="m 602650.4,744133.44 1341,3426.96 1175.5,-3487.2 -2516.5,60.24 z" />
    </g>
    <g
       id="g2660"
       transform="matrix(0.00246063,0,0,0.00246063,-1277.2805,-1497.3602)">
      <g
         id="g2662">
        <g
           id="g2664">
          <path
             inkscape:connector-curvature="0"
             id="path2666"
             style="fill:#000000;fill-opacity:0;fill-rule:nonzero;stroke:none"
             d="m 607432,731357 25344,0 0,13992 -25344,0 0,-13992 z" />
        </g>
      </g>
    </g>
    <g
       transform="matrix(0.93749812,0,0,0.93749812,-1277.2805,-1497.3602)"
       id="g2668">
      <g
         transform="translate(1594.3097,1919.5721)"
         id="g2670">
        <text
           id="text2672"
           style="font-variant:normal;font-weight:normal;font-size:18.66666603px;font-family:Arial;-inkscape-font-specification:ArialMT;writing-mode:lr-tb;fill:#000000;fill-opacity:1;fill-rule:nonzero;stroke:none"
           transform="translate(9,26.919998)">
          <tspan
             id="tspan2674"
             sodipodi:role="line"
             y="0"
             x="0 5.1706667 14.504 24.882666 34.216">[yes]</tspan>
        </text>
      </g>
    </g>
    <g
       id="g2678"
       transform="matrix(0.00246063,0,0,0.00246063,-1277.2805,-1497.3602)">
      <g
         id="g2680">
        <path
           inkscape:connector-curvature="0"
           id="path2682"
           style="fill:#ffffff;fill-opacity:1;fill-rule:nonzero;stroke:none"
           d="m 565074,752017.94 0,0 c 0,-1877.74 1522.25,-3400 3400,-3400 l 72892,0 c 901.75,0 1766.56,358.16 2404.2,995.81 637.6,637.65 995.8,1502.45 995.8,2404.19 l 0,13600 c 0,1877.76 -1522.25,3400 -3400,3400 l -72892,0 c -1877.75,0 -3400,-1522.24 -3400,-3400 l 0,-13600 z" />
      </g>
      <path
         inkscape:connector-curvature="0"
         id="path2684"
         style="fill:none;stroke:#000000;stroke-width:762;stroke-linecap:butt;stroke-linejoin:round;stroke-miterlimit:14.3355875;stroke-dasharray:none;stroke-opacity:1"
         d="m 565074,752017.94 0,0 c 0,-1877.74 1522.25,-3400 3400,-3400 l 72892,0 c 901.75,0 1766.56,358.16 2404.2,995.81 637.6,637.65 995.8,1502.45 995.8,2404.19 l 0,13600 c 0,1877.76 -1522.25,3400 -3400,3400 l -72892,0 c -1877.75,0 -3400,-1522.24 -3400,-3400 l 0,-13600 z" />
    </g>
    <g
       transform="matrix(0.93749812,0,0,0.93749812,-1277.2805,-1497.3602)"
       id="g2686">
      <g
         transform="translate(1485.7476,1967.4902)"
         id="g2688">
        <text
           id="text2690"
           style="font-variant:normal;font-weight:normal;font-size:18.66666603px;font-family:Arial;-inkscape-font-specification:ArialMT;writing-mode:lr-tb;fill:#000000;fill-opacity:1;fill-rule:nonzero;stroke:none"
           transform="translate(9,31.077934)">
          <tspan
             id="tspan2692"
             sodipodi:role="line"
             y="0"
             x="0 10.378666 20.757332 34.234665 39.405331 43.549332 53.927998 64.306664 74.685333 84.018661 94.397331 99.567993 103.712 114.09066">new innovation</tspan>
        </text>
      </g>
    </g>
    <g
       id="g2696"
       transform="matrix(0.00246063,0,0,0.00246063,-1277.2805,-1497.3602)">
      <g
         id="g2698">
        <path
           inkscape:connector-curvature="0"
           id="path2700"
           style="fill:#000000;fill-opacity:1;fill-rule:nonzero;stroke:none"
           d="m 600060.25,795498 0,0 c 0,-2684.1 2175.85,-4860 4860,-4860 l 0,0 c 1288.95,0 2525.15,512.06 3436.55,1423.44 911.4,911.46 1423.45,2147.62 1423.45,3436.56 l 0,0 c 0,2684.1 -2175.85,4860 -4860,4860 l 0,0 c -2684.15,0 -4860,-2175.9 -4860,-4860 z" />
      </g>
    </g>
    <g
       id="g2702"
       transform="matrix(0.00246063,0,0,0.00246063,-1277.2805,-1497.3602)">
      <g
         id="g2704">
        <g
           id="g2706">
          <path
             inkscape:connector-curvature="0"
             id="path2708"
             style="fill:#000000;fill-opacity:0;fill-rule:nonzero;stroke:none"
             d="m 597924.25,795498 0,0 c 0,-3863.8 3132.19,-6996 6996,-6996 l 0,0 c 1855.45,0 3634.95,737.06 4946.95,2049.06 1312,1312 2049.05,3091.5 2049.05,4946.94 l 0,0 c 0,3863.8 -3132.19,6996 -6996,6996 l 0,0 c -3863.81,0 -6996,-3132.2 -6996,-6996 z" />
        </g>
      </g>
      <path
         inkscape:connector-curvature="0"
         id="path2710"
         style="fill:none;stroke:#000000;stroke-width:762;stroke-linecap:butt;stroke-linejoin:round;stroke-miterlimit:14.3355875;stroke-dasharray:none;stroke-opacity:1"
         d="m 597924.25,795498 0,0 c 0,-3863.8 3132.19,-6996 6996,-6996 l 0,0 c 1855.45,0 3634.95,737.06 4946.95,2049.06 1312,1312 2049.05,3091.5 2049.05,4946.94 l 0,0 c 0,3863.8 -3132.19,6996 -6996,6996 l 0,0 c -3863.81,0 -6996,-3132.2 -6996,-6996 z" />
    </g>
    <g
       id="g2712"
       transform="matrix(0.00246063,0,0,0.00246063,-1277.2805,-1497.3602)">
      <g
         id="g2714">
        <g
           id="g2716">
          <path
             inkscape:connector-curvature="0"
             id="path2718"
             style="fill:#000000;fill-opacity:0;fill-rule:nonzero;stroke:none"
             d="m 604774.06,769018 0,17676" />
        </g>
      </g>
      <path
         inkscape:connector-curvature="0"
         id="path2720"
         style="fill:none;stroke:#000000;stroke-width:762;stroke-linecap:butt;stroke-linejoin:round;stroke-miterlimit:14.3355875;stroke-dasharray:none;stroke-opacity:1"
         d="m 604774.06,769018 0,13104" />
      <path
         inkscape:connector-curvature="0"
         id="path2722"
         style="fill:#000000;fill-opacity:1;fill-rule:evenodd;stroke:#000000;stroke-width:762;stroke-linecap:butt;stroke-linejoin:miter;stroke-miterlimit:11.47371292;stroke-dasharray:none;stroke-opacity:1"
         d="m 603515.44,782122 1258.62,3458 1258.64,-3458 -2517.26,0 z" />
    </g>
    <g
       id="g2754"
       transform="matrix(0.00246063,0,0,0.00246063,-1277.2805,-1497.3602)">
      <g
         id="g2756">
        <path
           inkscape:connector-curvature="0"
           id="path2758"
           style="fill:#000000;fill-opacity:1;fill-rule:nonzero;stroke:none"
           d="m 632910.25,718054 0,0 c 0,-2684.1 2175.85,-4860 4860,-4860 l 0,0 c 1288.95,0 2525.15,512.06 3436.55,1423.44 911.4,911.46 1423.45,2147.62 1423.45,3436.56 l 0,0 c 0,2684.1 -2175.85,4860 -4860,4860 l 0,0 c -2684.15,0 -4860,-2175.9 -4860,-4860 z" />
      </g>
    </g>
    <g
       id="g2760"
       transform="matrix(0.00246063,0,0,0.00246063,-1277.2805,-1497.3602)">
      <g
         id="g2762">
        <g
           id="g2764">
          <path
             inkscape:connector-curvature="0"
             id="path2766"
             style="fill:#000000;fill-opacity:0;fill-rule:nonzero;stroke:none"
             d="m 630774.25,718054 0,0 c 0,-3863.8 3132.19,-6996 6996,-6996 l 0,0 c 1855.45,0 3634.95,737.06 4946.95,2049.06 1312,1312 2049.05,3091.5 2049.05,4946.94 l 0,0 c 0,3863.8 -3132.19,6996 -6996,6996 l 0,0 c -3863.81,0 -6996,-3132.2 -6996,-6996 z" />
        </g>
      </g>
      <path
         inkscape:connector-curvature="0"
         id="path2768"
         style="fill:none;stroke:#000000;stroke-width:762;stroke-linecap:butt;stroke-linejoin:round;stroke-miterlimit:14.3355875;stroke-dasharray:none;stroke-opacity:1"
         d="m 630774.25,718054 0,0 c 0,-3863.8 3132.19,-6996 6996,-6996 l 0,0 c 1855.45,0 3634.95,737.06 4946.95,2049.06 1312,1312 2049.05,3091.5 2049.05,4946.94 l 0,0 c 0,3863.8 -3132.19,6996 -6996,6996 l 0,0 c -3863.81,0 -6996,-3132.2 -6996,-6996 z" />
    </g>
    <g
       id="g3222"
       transform="matrix(0.00246063,0,0,0.00246063,-1277.2805,-1497.3602)">
      <g
         id="g3224">
        <g
           id="g3226">
          <path
             inkscape:connector-curvature="0"
             id="path3228"
             style="fill:#000000;fill-opacity:0;fill-rule:nonzero;stroke:none"
             d="m 646684,684660.94 39516,-9144" />
        </g>
      </g>
      <path
         inkscape:connector-curvature="0"
         id="path3230"
         style="fill:none;stroke:#ff9900;stroke-width:762;stroke-linecap:butt;stroke-linejoin:round;stroke-miterlimit:14.3355875;stroke-dasharray:762, 2286;stroke-dashoffset:0;stroke-opacity:1"
         d="m 646684,684660.94 39516,-9144" />
    </g>
    <g
       id="g3232"
       transform="matrix(0.00246063,0,0,0.00246063,-1277.2805,-1497.3602)">
      <g
         id="g3234">
        <path
           inkscape:connector-curvature="0"
           id="path3236"
           style="fill:#fff2cc;fill-opacity:1;fill-rule:nonzero;stroke:none"
           d="m 683620,655694 85536,0 0,27159.9 -5432.1,5432.1 -80103.9,0 0,-32592 z" />
      </g>
      <g
         id="g3238">
        <path
           inkscape:connector-curvature="0"
           id="path3240"
           style="fill:#cbc1a3;fill-opacity:1;fill-rule:nonzero;stroke:none"
           d="m 763723.9,688286 1086.4,-4345.7 4345.7,-1086.4 -5432.1,5432.1 z" />
      </g>
      <g
         id="g3242">
        <g
           id="g3244">
          <path
             inkscape:connector-curvature="0"
             id="path3246"
             style="fill:#000000;fill-opacity:0;fill-rule:nonzero;stroke:none"
             d="m 763723.9,688286 1086.4,-4345.7 4345.7,-1086.4 -5432.1,5432.1 -80103.9,0 0,-32592 85536,0 0,27159.9" />
        </g>
      </g>
      <path
         inkscape:connector-curvature="0"
         id="path3248"
         style="fill:none;stroke:#ff9900;stroke-width:381;stroke-linecap:butt;stroke-linejoin:round;stroke-miterlimit:14.3355875;stroke-dasharray:none;stroke-opacity:1"
         d="m 763723.9,688286 1086.4,-4345.7 4345.7,-1086.4 -5432.1,5432.1 -80103.9,0 0,-32592 85536,0 0,27159.9" />
    </g>
    <g
       transform="matrix(0.93749812,0,0,0.93749812,-1277.2805,-1497.3602)"
       id="g3250">
      <g
         transform="translate(1794.2782,1720.9816)"
         id="g3252">
        <text
           id="text3254"
           style="font-variant:normal;font-weight:normal;font-size:16px;font-family:Arial;-inkscape-font-specification:ArialMT;writing-mode:lr-tb;fill:#000000;fill-opacity:1;fill-rule:nonzero;stroke:none"
           transform="translate(9,32.002903)">
          <tspan
             id="tspan3256"
             sodipodi:role="line"
             y="0"
             x="0 10.656 18.656 26.656 35.551998 40.880001 49.776001 53.327999 62.223999 71.120003 75.552002 79.984001 88.879997 93.311996 97.744003 106.64 115.536 119.968 127.968 132.39999 141.29601 149.29601 158.192 167.088 175.088 179.52 183.07201 191.07201">According to the stochastic</tspan>
        </text>
        <text
           id="text3258"
           style="font-variant:normal;font-weight:normal;font-size:16px;font-family:Arial;-inkscape-font-specification:ArialMT;writing-mode:lr-tb;fill:#000000;fill-opacity:1;fill-rule:nonzero;stroke:none"
           transform="translate(9,51.002903)">
          <tspan
             id="tspan3260"
             sodipodi:role="line"
             y="0"
             x="0 3.552 12.448 21.344 30.24 38.240002 47.136002 51.568001 55.119999 64.015999 72.912003 77.344002 85.344002 90.671997 99.568001 108.464 112.896 116.448 125.344 134.24001 138.672 144 152.896 156.448">innovation creation rule</tspan>
        </text>
      </g>
    </g>
  </g>
</svg>
